<svg width="415" height="204" viewBox="0 0 415 204" fill="none" xmlns="http://www.w3.org/2000/svg">
<g opacity="0.26">
<path d="M320.558 73.848L337.201 53.6216L330.405 51.0134L335.72 36.27L320.547 53.7093L328.353 55.9753L320.558 73.848Z" fill="#D9DAD9"/>
<path d="M88.5532 70.4067L105.327 119.299L116.803 110.652L136.128 134.892L122.522 91.3594L110.574 102.053L88.5532 70.4067Z" fill="#D9DAD9"/>
<path d="M158.833 77.7246L158.733 96.5733L163.727 94.9614L167.471 105.62L168.018 88.9964L162.615 91.2557L158.833 77.7246Z" fill="#D9DAD9"/>
<path d="M73.792 133.783L85.7671 148.38L88.5875 143.97L98.2892 149.814L88.0819 136.649L85.3604 141.818L73.792 133.783Z" fill="#D9DAD9"/>
<path d="M108.711 233.711C114.081 252.365 104.656 271.421 87.6594 276.273C70.663 281.125 52.5319 269.935 47.1621 251.281C41.7917 232.626 51.2169 213.57 68.214 208.718C85.2098 203.865 103.342 215.056 108.711 233.711Z" fill="#42616A"/>
<path d="M112.754 233.023C121.535 257.944 116.522 282.386 101.557 287.613C86.5918 292.843 67.3423 276.88 58.5617 251.959C49.7812 227.039 54.7944 202.597 69.7594 197.369C84.7244 192.139 103.973 208.102 112.755 233.022L112.754 233.023Z" fill="#6CC56C"/>
<path d="M185.392 209.2C195.007 236.49 188.648 263.559 171.187 269.661C153.726 275.762 131.776 258.585 122.16 231.294C112.544 204.003 118.904 176.935 136.365 170.834C153.826 164.733 175.775 181.909 185.391 209.2H185.392Z" fill="#6CC56C"/>
<path d="M164.186 349.677C152.367 325.404 156.06 286.664 156.06 286.664C156.06 286.664 155.075 279.554 156.06 276.611C157.045 273.669 171.187 269.661 171.187 269.661L137.498 170.477L66.9639 198.63L89.4853 287.665C89.4853 287.665 93.0289 322.216 95.4915 337.908C97.9533 353.6 101.4 375.668 104.601 384.003C107.801 392.34 122.575 393.32 130.454 394.302C138.333 395.283 168.125 380.816 171.187 376.402C174.249 371.989 176.004 373.951 164.186 349.677V349.677Z" fill="#6CC56C"/>
<path d="M169.322 270.22C170.46 269.867 171.188 269.661 171.188 269.661C170.96 269.741 170.73 269.816 170.5 269.888C170.267 269.962 170.033 270.03 169.798 270.095C169.641 270.138 169.481 270.18 169.322 270.22ZM171.188 269.661L169.82 265.637C171.98 265.656 174.78 265.68 178.114 265.709C176.052 267.431 173.738 268.77 171.188 269.662V269.661ZM138.99 174.867L137.498 170.477L133.495 172.075C134.415 171.595 135.372 171.181 136.366 170.835C138.745 170.003 141.208 169.604 143.713 169.604C144.735 169.604 145.763 169.67 146.797 169.801C144.029 171.643 141.689 173.145 139.895 174.293C139.576 174.495 139.275 174.686 138.99 174.867Z" fill="#6CC56C"/>
<path d="M163.839 270.892C147.972 270.892 130.466 254.866 122.161 231.295C113.092 205.556 118.234 180.015 133.495 172.075L137.498 170.477L138.99 174.867C138.117 175.419 137.406 175.87 136.863 176.215C136.536 176.424 136.276 176.591 136.076 176.717C135.919 176.819 135.832 176.879 135.817 176.897C125.222 183.386 121.976 203.055 128.105 224.138C128.315 224.909 128.53 225.621 128.746 226.239C129.003 227.049 129.276 227.862 129.563 228.674C137.187 250.31 152.157 265.325 164.984 265.325L165.052 265.53C165.052 265.539 165.151 265.547 165.342 265.555C165.56 265.562 165.841 265.57 166.192 265.581C166.972 265.593 168.066 265.611 169.458 265.634C169.577 265.635 169.698 265.636 169.821 265.637L171.188 269.66C171.188 269.66 170.46 269.867 169.323 270.22C167.529 270.671 165.697 270.891 163.84 270.891L163.839 270.892Z" fill="#6CC56C"/>
<path d="M135.816 176.901C135.816 176.901 170.525 156.447 188.455 136.102C203.042 119.548 223.063 91.6719 223.063 91.6719L315.212 284.338C315.212 284.338 267.261 266.068 223.063 265.653C180.9 265.257 165.051 265.53 165.051 265.53L135.815 176.902L135.816 176.901Z" fill="#D9DAD9"/>
<path d="M179.198 211.331C187.852 235.894 183.758 259.69 170.051 264.479C156.345 269.269 138.217 253.238 129.563 228.675C120.907 204.11 125.002 180.315 138.709 175.524C152.415 170.736 170.543 186.766 179.198 211.331H179.198Z" fill="#D9DAD9"/>
<path d="M180.257 214.537C179.928 213.471 179.574 212.401 179.197 211.331C176.51 203.702 172.908 196.896 168.809 191.281C185.962 179.438 201.061 164.122 214.305 147.591C216.137 162.414 219.628 178.111 224.87 194.029C226.242 198.197 227.705 202.285 229.244 206.279C228.073 206.243 226.905 206.227 225.741 206.227C209.962 206.227 194.833 209.392 180.257 214.538V214.537Z" fill="#E2E3E3"/>
<path d="M133.278 237.569C133.278 237.569 130.406 230.964 128.765 226.299C128.758 226.279 128.751 226.26 128.745 226.24C128.521 225.539 128.307 224.837 128.104 224.139C126.716 219.059 125.501 211.428 125.501 211.428C141.217 207.443 155.62 200.388 168.809 191.282C172.908 196.896 176.51 203.702 179.198 211.331C179.574 212.401 179.928 213.472 180.257 214.538C163.957 220.291 148.346 228.52 133.278 237.569L133.278 237.569Z" fill="#E2E3E3"/>
<path d="M76.5926 236.695L72.8267 221.804C113.742 206.15 106.003 199.41 114.726 223.689C114.726 223.689 94.0154 230.247 76.5926 236.695Z" fill="#6CC56C"/>
<path d="M136.366 170.834C136.368 170.841 136.259 170.894 136.046 170.987C135.808 171.086 135.492 171.22 135.092 171.389C134.261 171.755 133.056 172.353 131.615 173.296C128.757 175.179 125.038 178.761 122.387 184.337C119.685 189.856 117.988 197.148 117.92 205.275C117.801 213.404 119.292 222.35 122.392 231.21C125.53 240.059 129.981 247.974 135.175 254.247C140.328 260.551 146.23 265.189 151.802 267.815C157.37 270.518 162.522 271 165.934 270.693C167.651 270.533 168.967 270.25 169.845 270.019C170.264 269.902 170.593 269.809 170.842 269.74C171.067 269.68 171.185 269.653 171.187 269.66C171.19 269.668 171.078 269.711 170.857 269.788C170.612 269.869 170.285 269.977 169.871 270.114C168.997 270.377 167.68 270.692 165.951 270.883C162.517 271.252 157.296 270.818 151.654 268.128C146.008 265.515 140.034 260.864 134.826 254.533C129.578 248.232 125.086 240.273 121.929 231.371C118.811 222.459 117.324 213.453 117.469 205.269C117.561 197.085 119.308 189.737 122.076 184.185C124.793 178.574 128.597 174.986 131.511 173.137C132.981 172.209 134.207 171.636 135.055 171.298C135.464 171.147 135.787 171.028 136.029 170.939C136.25 170.861 136.364 170.825 136.367 170.833L136.366 170.834Z" fill="#2C3C43"/>
<path d="M223.063 91.6714C223.07 91.6768 223.013 91.7686 222.898 91.9441C222.765 92.1392 222.591 92.393 222.372 92.7136C221.88 93.4082 221.185 94.3889 220.298 95.6397C218.482 98.1703 215.831 101.814 212.501 106.278C209.169 110.739 205.161 116.024 200.597 121.805C198.31 124.691 195.89 127.706 193.318 130.782C192.039 132.325 190.714 133.877 189.352 135.438C188.001 137.007 186.523 138.512 185.087 140.082C179.095 146.147 172.838 151.339 167.011 155.859C161.172 160.369 155.733 164.188 151.109 167.307C146.482 170.424 142.656 172.824 139.998 174.454C138.669 175.27 137.625 175.886 136.916 176.299C136.577 176.491 136.308 176.643 136.103 176.76C135.917 176.86 135.82 176.908 135.816 176.902C135.811 176.894 135.9 176.832 136.077 176.717C136.276 176.59 136.536 176.424 136.863 176.215C137.583 175.759 138.599 175.114 139.896 174.293C142.523 172.614 146.316 170.173 150.913 167.022C155.508 163.87 160.921 160.026 166.733 155.503C172.534 150.974 178.769 145.781 184.735 139.742C186.166 138.178 187.633 136.684 188.983 135.12C190.344 133.563 191.668 132.015 192.949 130.476C195.522 127.41 197.948 124.404 200.242 121.527C204.822 115.765 208.857 110.505 212.223 106.071C215.553 101.638 218.254 98.0434 220.144 95.5283C221.061 94.3012 221.782 93.3386 222.292 92.6576C222.527 92.3484 222.715 92.1034 222.858 91.9164C222.986 91.7504 223.056 91.668 223.064 91.6727L223.063 91.6714Z" fill="#2C3C43"/>
<path d="M276.341 272.793C276.32 272.787 276.296 272.781 276.271 272.773C276.06 272.718 275.789 272.648 275.449 272.559C274.725 272.378 273.657 272.108 272.275 271.792C270.964 271.487 269.373 271.128 267.53 270.735C252.904 254.793 239.361 232.511 229.244 206.278C231.106 206.334 232.976 206.434 234.857 206.58C245.845 234.153 260.61 257.179 276.341 272.793ZM214.304 147.59C212.371 131.943 212.288 117.273 213.944 104.336C216.038 101.514 217.815 99.0795 219.231 97.1206C217.001 110.384 216.721 125.72 218.522 142.206C217.137 144.014 215.732 145.808 214.304 147.59V147.59Z" fill="#949899"/>
<path d="M234.857 206.58C232.976 206.434 231.106 206.334 229.243 206.278C227.704 202.284 226.242 198.196 224.869 194.028C219.626 178.11 216.136 162.413 214.304 147.59C215.732 145.808 217.137 144.014 218.522 142.207C220.236 157.912 223.838 174.664 229.439 191.67C231.118 196.769 232.929 201.745 234.857 206.58Z" fill="#9B9E9F"/>
<path d="M218.229 98.076L219.331 96.5356C219.325 96.5694 219.319 96.5984 219.314 96.6322C218.973 97.0858 218.611 97.5677 218.229 98.076Z" fill="#ABAEAF"/>
<path d="M213.943 104.336C213.958 104.226 213.972 104.116 213.987 104.006L218.229 98.0757C218.61 97.5674 218.972 97.0854 219.313 96.6318C219.285 96.7952 219.258 96.9572 219.23 97.1212C217.814 99.0801 216.037 101.514 213.943 104.336Z" fill="#273035"/>
<path d="M348.995 152.622C371.027 219.517 362.124 282.489 329.11 293.273C296.095 304.055 251.47 258.566 229.438 191.671C207.406 124.774 216.31 61.8035 249.325 51.0203C282.339 40.2372 326.962 85.7255 348.996 152.622H348.995Z" fill="#6CC56C"/>
<path d="M331.071 159.445C349.217 214.542 346.019 265.054 323.929 272.269C301.84 279.483 269.223 240.669 251.077 185.573C232.931 130.478 236.128 79.9647 258.218 72.7503C280.308 65.5352 312.926 104.35 331.072 159.445H331.071Z" fill="#D9DAD9"/>
<path d="M325.183 275.27C321.554 275.268 317.764 274.393 313.887 272.725C314.364 272.819 314.836 272.896 315.306 272.957C316.394 273.114 317.393 273.174 318.294 273.174C319.596 273.174 320.691 273.047 321.547 272.897C321.569 272.892 321.591 272.887 321.613 272.882C322.421 272.742 323.216 272.543 323.998 272.289C346.088 265.074 349.285 214.561 331.139 159.465C315.968 113.403 290.683 78.7203 269.891 72.8019C267.791 72.1985 265.734 71.8866 263.74 71.8866C261.84 71.8866 259.993 72.1695 258.216 72.75C258.215 72.75 258.217 72.75 258.216 72.75C258.216 72.75 258.045 72.8026 257.715 72.9228C257.58 72.9714 257.445 73.022 257.31 73.0746C257.09 73.159 256.831 73.263 256.534 73.3872C258.792 71.3844 261.308 69.894 264.084 68.9875C266.183 68.301 268.36 67.9683 270.599 67.9683C294.331 67.9683 324.926 105.419 341.986 157.215C360.654 213.899 356.044 266.296 331.688 274.251C329.592 274.936 327.418 275.269 325.182 275.269L325.183 275.27Z" fill="#6CC56C"/>
<path d="M257.312 73.0742C257.446 73.0216 257.581 72.971 257.716 72.9224C257.6 72.9649 257.466 73.0142 257.312 73.0742ZM257.814 72.9325C258.071 72.8211 258.206 72.7543 258.217 72.7496C258.216 72.7496 258.218 72.7496 258.217 72.7496C259.994 72.1691 261.841 71.8862 263.741 71.8862C265.736 71.8862 267.791 72.1974 269.892 72.8015C267.815 72.2109 265.784 71.9065 263.811 71.9065C261.911 71.9065 260.064 72.19 258.287 72.7698C258.129 72.8211 257.97 72.8758 257.814 72.9332V72.9325Z" fill="#949899"/>
<path d="M244.542 164.558L302.092 152.147L312.535 183.855L260.271 211.429C260.271 211.429 245.49 178.899 244.541 164.558H244.542Z" fill="#6CC56C"/>
<path d="M253.951 162.529L260.602 161.094L253.951 162.529Z" fill="#ABAEAF"/>
<path d="M268.537 207.066L271.604 205.401C271.634 205.416 271.65 205.424 271.65 205.424L271.647 205.424L268.537 207.066V207.066ZM255.917 170.534C255.227 167.875 254.571 165.204 253.95 162.529L260.602 161.094C260.191 161.264 257.751 165.243 255.917 170.534ZM245.036 166.159L244.542 164.558L244.644 164.536C244.772 165.075 244.903 165.617 245.036 166.159Z" fill="#6CC56C"/>
<path d="M315.36 165.372C318.244 174.128 316.98 182.402 312.535 183.855C308.091 185.306 302.15 179.385 299.267 170.629C296.382 161.873 297.647 153.599 302.092 152.148C306.536 150.695 312.477 156.617 315.36 165.373V165.372Z" fill="#6CC56C"/>
<path d="M315.36 165.373C315.344 165.377 315.233 165.115 315.036 164.613C314.853 164.106 314.544 163.373 314.128 162.438C313.697 161.512 313.14 160.389 312.377 159.155C311.631 157.913 310.649 156.571 309.385 155.264C308.127 153.985 306.492 152.671 304.431 152.239C303.412 152.032 302.287 152.16 301.342 152.728C300.393 153.287 299.65 154.22 299.156 155.291C298.149 157.447 297.885 160.02 297.987 162.619C298.115 165.229 298.647 167.909 299.499 170.551C300.384 173.184 301.55 175.659 303 177.837C304.463 179.993 306.206 181.91 308.299 183.054C309.334 183.625 310.489 183.939 311.586 183.83C312.686 183.73 313.669 183.169 314.367 182.402C315.771 180.838 316.306 178.815 316.558 177.041C316.799 175.243 316.793 173.583 316.655 172.141C316.536 170.697 316.317 169.465 316.113 168.464C315.892 167.465 315.705 166.692 315.551 166.176C315.411 165.655 315.345 165.378 315.362 165.373C315.378 165.368 315.476 165.634 315.647 166.147C315.831 166.657 316.049 167.424 316.3 168.422C316.534 169.423 316.781 170.66 316.928 172.117C317.092 173.571 317.125 175.251 316.902 177.089C316.66 178.899 316.153 180.985 314.664 182.678C313.924 183.507 312.842 184.141 311.63 184.258C310.421 184.384 309.177 184.045 308.087 183.452C305.884 182.259 304.1 180.297 302.601 178.105C301.118 175.887 299.932 173.375 299.035 170.705C298.17 168.023 297.633 165.3 297.508 162.641C297.412 159.99 297.683 157.357 298.75 155.097C299.274 153.977 300.074 152.97 301.123 152.359C302.169 151.739 303.418 151.611 304.508 151.842C306.714 152.326 308.363 153.708 309.635 155.024C310.908 156.373 311.881 157.747 312.613 159.016C313.361 160.276 313.897 161.418 314.305 162.363C314.697 163.315 314.977 164.062 315.131 164.581C315.298 165.096 315.378 165.367 315.362 165.373L315.36 165.373Z" fill="#2C3C43"/>
<path d="M309.654 177.162C307.233 177.162 304.335 173.966 302.85 169.458C301.198 164.44 301.923 159.698 304.47 158.867C304.729 158.782 304.996 158.741 305.269 158.741C307.69 158.741 310.588 161.938 312.073 166.446C313.725 171.463 313.001 176.205 310.454 177.037C310.195 177.122 309.927 177.163 309.654 177.163V177.162Z" fill="#6CC56C"/>
<path d="M258.217 72.7502C258.217 72.7502 258.026 72.844 257.645 73.004C257.271 73.1802 256.681 73.3665 255.967 73.737C254.543 74.4741 252.504 75.7566 250.426 77.9949C246.209 82.4324 242.416 90.7835 240.806 101.57C239.954 106.956 239.509 112.932 239.517 119.347C239.538 125.763 239.985 132.615 240.857 139.778C242.595 154.107 246.128 169.655 251.308 185.49C256.554 201.31 262.954 215.926 270.077 228.497C273.634 234.784 277.351 240.57 281.149 245.753C284.959 250.926 288.871 255.479 292.761 259.316C300.475 267.057 308.497 271.549 314.533 272.636C317.54 273.215 319.944 273.045 321.53 272.799C322.324 272.677 322.911 272.479 323.317 272.4C323.719 272.304 323.929 272.267 323.929 272.267C323.929 272.267 323.125 272.547 321.547 272.895C319.958 273.174 317.535 273.377 314.497 272.822C311.466 272.278 307.887 270.938 304.132 268.709C300.365 266.496 296.429 263.406 292.518 259.562C288.596 255.726 284.656 251.17 280.821 245.992C276.998 240.806 273.259 235.014 269.683 228.718C262.523 216.13 256.097 201.492 250.842 185.643C245.652 169.778 242.124 154.197 240.409 139.832C239.547 132.652 239.114 125.781 239.11 119.348C239.12 112.914 239.586 106.92 240.463 101.516C241.329 96.1113 242.661 91.2999 244.381 87.2951C246.08 83.2842 248.167 80.0922 250.286 77.8653C252.405 75.6277 254.477 74.3607 255.924 73.6486C257.404 72.9979 258.217 72.7495 258.217 72.7495V72.7502Z" fill="#2C3C43"/>
<path d="M271.604 205.401C271.246 205.219 268.801 203.926 265.508 201.103C264.671 198.841 263.861 196.57 263.076 194.29L302.347 177.72C302.429 177.848 302.514 177.976 302.599 178.103C304.098 180.296 305.882 182.258 308.085 183.45C308.857 183.87 309.704 184.163 310.562 184.253L271.603 205.402L271.604 205.401Z" fill="#6CC56C"/>
<path d="M267.913 207.396C267.089 205.309 266.286 203.209 265.508 201.104C268.8 203.927 271.245 205.219 271.604 205.402L268.537 207.068L267.913 207.397V207.396Z" fill="#6CC56C"/>
<path d="M310.562 184.253C309.704 184.163 308.856 183.87 308.086 183.45C305.882 182.258 304.098 180.295 302.599 178.103C302.515 177.976 302.43 177.848 302.347 177.719L302.57 177.625C302.57 177.625 306.232 183.831 310.911 184.064L310.563 184.253H310.562Z" fill="#28343A"/>
<path d="M232.782 133.113H224.01C221.512 128.908 224.01 117.907 224.01 117.907H232.782V133.113Z" fill="#6CC56C"/>
<path d="M233.13 111.501C232.101 110.866 230.794 110.64 229.412 110.64C227.414 110.64 225.258 111.111 223.553 111.501C223.444 92.8389 229.38 71.5042 243.871 59.3009C249.582 54.1661 256.239 50.9498 263.372 49.6646C282.03 51.7098 302.601 67.951 320.144 93.3499C308.619 80.1752 295.788 67.7093 279.145 62.9702C275.446 61.9178 271.564 61.2928 267.716 61.2928C263.87 61.2928 260.059 61.9165 256.496 63.3583C247.74 66.9027 241.485 75.0149 238.107 83.8061C234.729 92.5973 233.86 102.115 233.131 111.501H233.13Z" fill="#6CC56C"/>
<path d="M313.887 272.725C296.756 269.361 276.144 245.478 260.606 211.251L260.777 211.162C263.582 217.358 266.563 223.233 269.684 228.72C273.26 235.015 276.998 240.807 280.822 245.993C284.656 251.171 288.597 255.727 292.518 259.563C296.43 263.408 300.365 266.498 304.133 268.71C307.604 270.771 310.925 272.072 313.802 272.687C313.831 272.701 313.86 272.711 313.887 272.725ZM244.644 164.536C234.124 120.317 238.097 82.7069 255.158 73.8481C255.1 73.9474 255.044 74.0466 254.986 74.1465C253.647 74.9065 251.981 76.0756 250.287 77.8664C248.168 80.0932 246.08 83.2853 244.381 87.2962C242.661 91.301 241.328 96.1124 240.463 101.517C239.586 106.921 239.12 112.915 239.11 119.349C239.114 125.783 239.546 132.654 240.409 139.833C241.354 147.736 242.845 156.006 244.861 164.49L244.644 164.536H244.644Z" fill="#6CC56C"/>
<path d="M318.548 273.028C317.377 273.028 316.029 272.925 314.532 272.638C308.496 271.55 300.474 267.059 292.76 259.318C288.87 255.48 284.958 250.927 281.148 245.754C277.35 240.572 273.634 234.786 270.076 228.499C266.982 223.038 264.024 217.192 261.239 211.03L267.925 207.43C270.529 214.035 273.355 220.552 276.398 226.969C281.543 237.816 287.425 248.54 295.937 257.028C303.903 264.972 314.5 270.82 325.699 271.356C324.977 271.709 324.233 272.019 323.464 272.27C322.674 272.527 321.873 272.726 321.057 272.868C320.349 272.959 319.508 273.028 318.548 273.028H318.548ZM245.331 164.388C243.313 155.92 241.812 147.665 240.857 139.779C239.985 132.617 239.538 125.764 239.516 119.349C239.509 112.934 239.953 106.957 240.805 101.571C242.416 90.7843 246.208 82.4332 250.426 77.9964C252.016 76.2846 253.58 75.1324 254.867 74.3555C251.095 80.9718 248.767 88.4528 247.639 96.0068C245.975 107.142 246.753 118.498 248.129 129.673C249.491 140.718 251.436 151.688 253.951 162.529L245.333 164.388H245.331Z" fill="#949899"/>
<path d="M260.606 211.251C256.958 203.217 253.591 194.615 250.612 185.573C248.453 179.014 246.596 172.523 245.037 166.159L246.316 170.304C247.646 175.366 249.156 180.489 250.842 185.644C253.807 194.585 257.144 203.141 260.776 211.161L260.606 211.251V211.251ZM255.58 197.453C254.2 193.856 252.878 190.179 251.621 186.433L255.767 197.373L255.58 197.453ZM260.016 195.58C258.813 194.173 257.589 192.594 256.382 190.831C252.4 185.014 253.729 176.842 255.917 170.535C257.994 178.542 260.382 186.467 263.076 194.29L260.016 195.581V195.58Z" fill="#6CC56C"/>
<path d="M245.332 164.388L253.951 162.529L245.332 164.388Z" fill="#787D7E"/>
<path d="M255.767 197.373L251.621 186.433C251.515 186.119 251.411 185.806 251.308 185.491C248.977 178.37 246.982 171.307 245.331 164.388L253.95 162.529C254.57 165.205 255.226 167.875 255.917 170.534C253.729 176.842 252.4 185.014 256.382 190.831C257.589 192.595 258.813 194.173 260.016 195.58L255.767 197.373ZM246.316 170.303L245.037 166.159C244.904 165.617 244.773 165.075 244.644 164.536L244.861 164.49C245.318 166.417 245.804 168.356 246.316 170.304V170.303Z" fill="#6CC56C" fill-opacity="0.5"/>
<path d="M317.942 273.132C317.076 273.132 316.196 273.073 315.307 272.958C315.042 272.919 314.772 272.875 314.498 272.825C314.269 272.785 314.038 272.738 313.803 272.688C310.926 272.073 307.604 270.771 304.133 268.71C300.366 266.498 296.431 263.408 292.519 259.564C288.598 255.727 284.657 251.171 280.822 245.993C276.999 240.807 273.26 235.015 269.684 228.72C266.564 223.234 263.582 217.358 260.777 211.163C257.145 203.142 253.808 194.586 250.843 185.645C249.157 180.491 247.647 175.367 246.316 170.305C245.804 168.357 245.319 166.418 244.862 164.49C242.846 156.007 241.354 147.736 240.41 139.834C239.548 132.654 239.114 125.782 239.11 119.35C239.121 112.916 239.586 106.922 240.463 101.518C241.33 96.1128 242.661 91.3014 244.381 87.2967C246.08 83.2858 248.167 80.0937 250.287 77.8669C251.982 76.0761 253.647 74.907 254.986 74.147C254.946 74.2158 254.906 74.286 254.867 74.3549C253.581 75.1325 252.016 76.284 250.426 77.9958C246.209 82.4333 242.416 90.7844 240.806 101.571C239.954 106.957 239.509 112.933 239.516 119.348C239.538 125.764 239.985 132.616 240.857 139.779C241.812 147.664 243.314 155.919 245.331 164.388C246.982 171.307 248.977 178.37 251.308 185.491C251.412 185.806 251.516 186.119 251.621 186.433C252.878 190.178 254.199 193.856 255.58 197.453L255.344 197.552L260.992 211.162L261.239 211.029C261.24 211.029 261.239 211.029 261.24 211.029C264.025 217.192 266.984 223.039 270.077 228.498C273.634 234.785 277.35 240.571 281.149 245.754C284.959 250.927 288.871 255.48 292.761 259.317C300.474 267.058 308.496 271.549 314.533 272.637C316.03 272.924 317.378 273.027 318.549 273.027C319.508 273.027 320.35 272.958 321.059 272.867C320.038 273.044 318.999 273.131 317.943 273.131L317.942 273.132Z" fill="#273035"/>
<path d="M259.052 206.041C257.858 203.235 256.699 200.369 255.58 197.453L255.767 197.373L259.052 206.041ZM265.508 201.104C263.841 199.674 261.956 197.852 260.016 195.581L263.075 194.29C263.86 196.57 264.671 198.841 265.508 201.103V201.104Z" fill="#6CC56C" fill-opacity="0.5"/>
<path d="M261.198 210.939C260.471 209.327 259.755 207.694 259.051 206.041L255.767 197.372L260.015 195.58C261.955 197.85 263.84 199.673 265.508 201.102C266.286 203.207 267.088 205.307 267.912 207.395L261.197 210.937L261.198 210.939Z" fill="#6CC56C"/>
<path d="M260.992 211.162L255.344 197.552L255.58 197.453C256.699 200.369 257.858 203.235 259.052 206.041C259.755 207.695 260.471 209.327 261.199 210.939C261.212 210.968 261.227 210.999 261.239 211.029L260.993 211.162H260.992Z" fill="#242B2F"/>
<path d="M352.9 156.558L410.749 146.183L401.85 133.563L433.553 120.253L383.016 126.332L392.178 140.165L352.9 156.558Z" fill="#6CC56C"/>
<path d="M347.563 119.434L384.285 90.1856L370.014 84.0552L382.775 60.9385L352.9 85.9405L365.281 91.7664L347.563 119.434Z" fill="#6CC56C"/>
<path d="M366.776 187.667L403.642 216.856L404.609 205.89L429.114 215.909L397.374 190.453L396.381 202.078L366.776 187.667Z" fill="#6CC56C"/>
</g>
</svg>
