<svg width="22" height="22" viewBox="0 0 22 22" fill="none" xmlns="http://www.w3.org/2000/svg">
<g clip-path="url(#clip0_10165_13152)">
<path d="M17.0736 1.64941H5.13995C4.01001 1.65077 2.92673 2.10024 2.12774 2.89923C1.32875 3.69822 0.879283 4.78149 0.87793 5.91144L0.87793 16.1403C0.879283 17.2702 1.32875 18.3535 2.12774 19.1525C2.92673 19.9515 4.01001 20.401 5.13995 20.4023H17.0736C18.2036 20.401 19.2868 19.9515 20.0858 19.1525C20.8848 18.3535 21.3343 17.2702 21.3356 16.1403V5.91144C21.3343 4.78149 20.8848 3.69822 20.0858 2.89923C19.2868 2.10024 18.2036 1.65077 17.0736 1.64941V1.64941ZM5.13995 3.35422H17.0736C17.584 3.35523 18.0825 3.50895 18.5048 3.7956C18.9271 4.08226 19.2539 4.48873 19.4433 4.96271L12.9156 11.4913C12.4352 11.9697 11.7848 12.2384 11.1068 12.2384C10.4288 12.2384 9.77837 11.9697 9.29798 11.4913L2.77027 4.96271C2.95963 4.48873 3.2865 4.08226 3.70881 3.7956C4.13112 3.50895 4.62955 3.35523 5.13995 3.35422V3.35422ZM17.0736 18.6975H5.13995C4.46174 18.6975 3.8113 18.4281 3.33173 17.9485C2.85216 17.4689 2.58274 16.8185 2.58274 16.1403V7.19004L8.09268 12.6966C8.89277 13.4946 9.97672 13.9428 11.1068 13.9428C12.2369 13.9428 13.3208 13.4946 14.1209 12.6966L19.6308 7.19004V16.1403C19.6308 16.8185 19.3614 17.4689 18.8818 17.9485C18.4023 18.4281 17.7518 18.6975 17.0736 18.6975Z" fill="#1A1A1A"/>
</g>
<defs>
<clipPath id="clip0_10165_13152">
<rect width="20.4577" height="20.4577" fill="white" transform="translate(0.87793 0.796875)"/>
</clipPath>
</defs>
</svg>
