<svg width="32" height="32" viewBox="0 0 32 32" fill="none" xmlns="http://www.w3.org/2000/svg">
<g clip-path="url(#clip0_10165_13141)">
<path d="M23.4773 12.4899C23.4775 11.9756 23.3759 11.4664 23.1784 10.9915C22.9809 10.5166 22.6914 10.0855 22.3266 9.72303C21.58 9.01065 20.5877 8.61319 19.5558 8.61319C18.5239 8.61319 17.5316 9.01065 16.7851 9.72303L1.61313 24.8988C0.920661 25.6413 0.543501 26.6237 0.561139 27.6388C0.578777 28.654 0.989835 29.6226 1.70768 30.3407C2.42553 31.0587 3.39409 31.4699 4.40924 31.4878C5.42438 31.5057 6.40682 31.1288 7.1495 30.4365L22.3266 15.2607C22.692 14.8978 22.9818 14.4661 23.1793 13.9905C23.3769 13.5149 23.4781 13.0049 23.4773 12.4899V12.4899ZM5.34155 28.6311C5.08307 28.8774 4.73968 29.0149 4.38259 29.0149C4.0255 29.0149 3.68211 28.8774 3.42364 28.6311C3.16973 28.3765 3.02713 28.0316 3.02713 27.6721C3.02713 27.3126 3.16973 26.9677 3.42364 26.7132L13.3571 16.7784L15.2814 18.7027L5.34155 28.6311ZM20.5212 13.4514L17.0843 16.8896L15.1664 14.9653L18.6045 11.5284C18.7271 11.3884 18.8771 11.2751 19.0453 11.1954C19.2134 11.1157 19.3962 11.0714 19.5821 11.0652C19.7681 11.0591 19.9534 11.0911 20.1264 11.1595C20.2995 11.2278 20.4567 11.331 20.5883 11.4626C20.7199 11.5942 20.823 11.7513 20.8914 11.9244C20.9597 12.0975 20.9918 12.2828 20.9856 12.4687C20.9795 12.6547 20.9352 12.8374 20.8555 13.0056C20.7758 13.1738 20.6625 13.3238 20.5224 13.4463L20.5212 13.4514ZM6.68025 4.55106L8.66209 3.98592L9.22723 2.00408C9.31828 1.68607 9.51039 1.40635 9.77453 1.20722C10.0387 1.0081 10.3605 0.900391 10.6912 0.900391C11.022 0.900391 11.3438 1.0081 11.6079 1.20722C11.8721 1.40635 12.0642 1.68607 12.1552 2.00408L12.7204 3.98592L14.7022 4.55106C15.0202 4.64211 15.3 4.83422 15.4991 5.09836C15.6982 5.36249 15.8059 5.68428 15.8059 6.01507C15.8059 6.34585 15.6982 6.66764 15.4991 6.93178C15.3 7.19591 15.0202 7.38803 14.7022 7.47907L12.7204 8.04422L12.1552 10.0261C12.0642 10.3441 11.8721 10.6238 11.6079 10.8229C11.3438 11.022 11.022 11.1297 10.6912 11.1297C10.3605 11.1297 10.0387 11.022 9.77453 10.8229C9.51039 10.6238 9.31828 10.3441 9.22723 10.0261L8.66209 8.04422L6.68025 7.47907C6.36224 7.38803 6.08252 7.19591 5.8834 6.93178C5.68427 6.66764 5.57656 6.34585 5.57656 6.01507C5.57656 5.68428 5.68427 5.36249 5.8834 5.09836C6.08252 4.83422 6.36224 4.64211 6.68025 4.55106V4.55106ZM30.0455 22.8224L28.0637 23.3875L27.4985 25.3693C27.4075 25.6873 27.2154 25.9671 26.9512 26.1662C26.6871 26.3653 26.3653 26.473 26.0345 26.473C25.7037 26.473 25.3819 26.3653 25.1178 26.1662C24.8537 25.9671 24.6616 25.6873 24.5705 25.3693L24.0054 23.3875L22.0235 22.8224C21.7055 22.7313 21.4258 22.5392 21.2267 22.2751C21.0276 22.0109 20.9198 21.6891 20.9198 21.3583C20.9198 21.0276 21.0276 20.7058 21.2267 20.4416C21.4258 20.1775 21.7055 19.9854 22.0235 19.8943L24.0054 19.3292L24.5705 17.3474C24.6616 17.0294 24.8537 16.7496 25.1178 16.5505C25.3819 16.3514 25.7037 16.2437 26.0345 16.2437C26.3653 16.2437 26.6871 16.3514 26.9512 16.5505C27.2154 16.7496 27.4075 17.0294 27.4985 17.3474L28.0637 19.3292L30.0455 19.8943C30.3635 19.9854 30.6432 20.1775 30.8424 20.4416C31.0415 20.7058 31.1492 21.0276 31.1492 21.3583C31.1492 21.6891 31.0415 22.0109 30.8424 22.2751C30.6432 22.5392 30.3635 22.7313 30.0455 22.8224V22.8224ZM23.164 4.09716L24.8978 3.60234L25.3952 1.86599C25.4762 1.58958 25.6445 1.34684 25.875 1.17415C26.1055 1.00146 26.3858 0.908126 26.6738 0.908126C26.9618 0.908126 27.2421 1.00146 27.4726 1.17415C27.7031 1.34684 27.8715 1.58958 27.9524 1.86599L28.4473 3.59978L30.181 4.0946C30.4575 4.17555 30.7002 4.34389 30.8729 4.57441C31.0456 4.80492 31.1389 5.08518 31.1389 5.37321C31.1389 5.66123 31.0456 5.9415 30.8729 6.17201C30.7002 6.40252 30.4575 6.57087 30.181 6.65181L28.4473 7.14663L27.9524 8.88426C27.8715 9.16067 27.7031 9.40341 27.4726 9.5761C27.2421 9.74879 26.9618 9.84212 26.6738 9.84212C26.3858 9.84212 26.1055 9.74879 25.875 9.5761C25.6445 9.40341 25.4762 9.16067 25.3952 8.88426L24.9004 7.15175L23.164 6.65437C22.8876 6.57342 22.6449 6.40508 22.4722 6.17457C22.2995 5.94405 22.2062 5.66379 22.2062 5.37576C22.2062 5.08774 22.2995 4.80748 22.4722 4.57696C22.6449 4.34645 22.8876 4.17811 23.164 4.09716V4.09716Z" fill="#036E03"/>
</g>
<defs>
<clipPath id="clip0_10165_13141">
<rect width="30.6866" height="30.6866" fill="white" transform="translate(0.461914 0.900391)"/>
</clipPath>
</defs>
</svg>
