<svg width="21" height="22" viewBox="0 0 21 22" fill="none" xmlns="http://www.w3.org/2000/svg">
<path d="M15.5183 21.0096C8.58745 21.244 -3.89855 8.85857 1.89864 2.14332L2.87891 1.29092C3.37511 0.81124 4.04023 0.546238 4.73035 0.553257C5.42046 0.560277 6.08006 0.838753 6.5664 1.32842C6.59269 1.35519 6.61718 1.38367 6.63971 1.41366L8.17404 3.40744C8.64032 3.90084 8.8994 4.55442 8.89782 5.23329C8.89623 5.91216 8.6341 6.56451 8.16551 7.05573L7.17843 8.29683C7.72492 9.62409 8.52814 10.8304 9.542 11.8464C10.5558 12.8624 11.7604 13.6683 13.0864 14.2176L14.3344 13.2246C14.832 12.7676 15.4827 12.5135 16.1584 12.5126C16.834 12.5117 17.4855 12.7638 17.9844 13.2195L19.979 14.7538C20.0088 14.7763 20.0372 14.8005 20.0642 14.8263C20.5561 15.3227 20.8321 15.9933 20.8321 16.6922C20.8321 17.391 20.5561 18.0616 20.0642 18.5581L19.2877 19.4531C18.7951 19.951 18.2078 20.3453 17.5605 20.6126C16.9131 20.88 16.2187 21.0149 15.5183 21.0096V21.0096ZM4.70049 2.25669C4.578 2.2566 4.45668 2.28064 4.34348 2.32744C4.23027 2.37424 4.1274 2.44289 4.04073 2.52946L3.05962 3.38187C-1.75306 9.16799 12.9739 23.075 18.0398 18.2887L18.8171 17.3928C18.9096 17.3106 18.9848 17.2109 19.0385 17.0994C19.0922 16.988 19.1233 16.867 19.13 16.7435C19.1368 16.6199 19.119 16.4963 19.0777 16.3797C19.0365 16.2631 18.9725 16.1557 18.8896 16.0639L16.9061 14.5407C16.8757 14.5183 16.8472 14.4935 16.8208 14.4665C16.643 14.2971 16.4067 14.2025 16.1611 14.2025C15.9154 14.2025 15.6792 14.2971 15.5013 14.4665C15.4787 14.4895 15.4548 14.5111 15.4297 14.5313L13.7607 15.8611C13.6448 15.9533 13.5069 16.0137 13.3606 16.0365C13.2143 16.0592 13.0646 16.0434 12.9262 15.9906C11.2079 15.3505 9.64717 14.3485 8.34989 13.0525C7.05261 11.7566 6.04902 10.1969 5.40714 8.47925C5.35031 8.33891 5.33189 8.18598 5.35376 8.03617C5.37563 7.88635 5.43701 7.74507 5.53159 7.62684L6.85622 5.95954C6.87592 5.93428 6.89728 5.91036 6.92015 5.88794C7.09427 5.71233 7.19197 5.47505 7.19197 5.22775C7.19197 4.98045 7.09427 4.74317 6.92015 4.56756C6.89359 4.54105 6.86908 4.51256 6.84685 4.48232L5.32701 2.50133C5.15528 2.34617 4.93194 2.26048 4.70049 2.26095V2.25669ZM19.6116 11.2717C23.8651 5.01081 16.3725 -2.47415 10.1184 1.77849C10.0241 1.84146 9.94326 1.92262 9.8807 2.01721C9.81815 2.11179 9.77509 2.21791 9.75407 2.32935C9.73304 2.44079 9.73446 2.5553 9.75824 2.66618C9.78202 2.77706 9.82769 2.88208 9.89257 2.97509C9.95745 3.0681 10.0402 3.14723 10.1361 3.20784C10.2319 3.26845 10.3389 3.30933 10.4507 3.32808C10.5626 3.34683 10.677 3.34308 10.7874 3.31704C10.8978 3.291 11.0019 3.2432 11.0935 3.17644C15.7596 -0.0277522 21.4161 5.63477 18.2136 10.2974C18.1454 10.389 18.0963 10.4934 18.0692 10.6043C18.0421 10.7152 18.0376 10.8305 18.0559 10.9432C18.0742 11.0559 18.115 11.1638 18.1758 11.2605C18.2366 11.3571 18.3162 11.4406 18.4099 11.5059C18.5036 11.5712 18.6094 11.617 18.7212 11.6406C18.8329 11.6642 18.9482 11.6651 19.0603 11.6432C19.1724 11.6214 19.279 11.5772 19.3737 11.5134C19.4684 11.4496 19.5493 11.3674 19.6116 11.2717V11.2717ZM16.323 9.68199C16.4828 9.52214 16.5726 9.30537 16.5726 9.07934C16.5726 8.85331 16.4828 8.63654 16.323 8.47669L14.8688 7.02163V4.81391C14.8688 4.58783 14.779 4.37102 14.6192 4.21117C14.4593 4.05131 14.2425 3.9615 14.0164 3.9615C13.7903 3.9615 13.5735 4.05131 13.4137 4.21117C13.2538 4.37102 13.164 4.58783 13.164 4.81391V7.37112C13.1641 7.59717 13.2539 7.81395 13.4138 7.97377L15.1186 9.67858C15.2784 9.83838 15.4952 9.92815 15.7212 9.92815C15.9472 9.92815 16.164 9.83838 16.3239 9.67858L16.323 9.68199Z" fill="#1A1A1A"/>
</svg>
