<svg width="513" height="86" viewBox="0 0 513 86" fill="none" xmlns="http://www.w3.org/2000/svg">
<path d="M11 71V16C11 15.4477 11.4477 15 12 15H510.129C511.076 15 511.493 16.195 510.75 16.7836L478.04 42.7164C477.535 43.1167 477.535 43.8833 478.04 44.2836L510.75 70.2164C511.493 70.805 511.076 72 510.129 72H12C11.4477 72 11 71.5523 11 71Z" fill="#036E03"/>
<path d="M104.989 53.2613C99.6583 53.2613 97.2281 50.7789 97.2281 45.9709V34.395H100.129V45.7095C100.129 49.5246 101.618 50.8834 104.989 50.8834C108.36 50.8834 109.849 49.5246 109.849 45.7095V34.395H112.75V45.9709C112.75 50.7789 110.32 53.2613 104.989 53.2613ZM130.035 39.6472C130.035 42.0251 128.885 43.6191 126.716 44.2462C128.728 44.7166 129.773 46.1015 129.773 48.1397V51.1186C129.773 51.9025 129.878 52.5558 130.035 53H127.291C127.056 52.5035 126.873 51.9286 126.873 51.1186V48.2442C126.873 45.8663 125.383 45.2392 123.397 45.2392H118.511V53H115.61V34.395H124.077C127.918 34.395 130.035 36.407 130.035 39.6472ZM127.134 39.8302C127.134 37.8965 126.141 36.5899 123.763 36.5899H118.511V43.0442H123.763C126.141 43.0442 127.134 41.7638 127.134 39.8302ZM147.919 47.9045C147.919 50.8312 145.802 53 141.961 53H132.711V34.395H141.438C145.28 34.395 147.396 36.3809 147.396 39.3075C147.396 41.3719 146.351 42.9136 144.287 43.4623C146.691 43.9588 147.919 45.6834 147.919 47.9045ZM145.018 47.6955C145.018 45.8663 143.869 44.5859 141.647 44.5859H135.611V50.805H141.647C143.869 50.805 145.018 49.5246 145.018 47.6955ZM144.496 39.5166C144.496 37.6874 143.346 36.5899 141.125 36.5899H135.611V42.4432H141.125C143.346 42.4432 144.496 41.3457 144.496 39.5166ZM166.862 53H163.857L162.237 48.7146H153.718L152.072 53H149.093L156.201 34.395H159.755L166.862 53ZM161.505 46.4673L157.978 37.0864L154.45 46.4673H161.505ZM184.27 53H181.108L171.518 38.4714V53H168.749V34.395H171.91L181.5 48.9236V34.395H184.27V53ZM208.467 39.6472C208.467 42.0251 207.318 43.6191 205.149 44.2462C207.161 44.7166 208.206 46.1015 208.206 48.1397V51.1186C208.206 51.9025 208.311 52.5558 208.467 53H205.724C205.488 52.5035 205.306 51.9286 205.306 51.1186V48.2442C205.306 45.8663 203.816 45.2392 201.83 45.2392H196.944V53H194.043V34.395H202.51C206.351 34.395 208.467 36.407 208.467 39.6472ZM205.567 39.8302C205.567 37.8965 204.574 36.5899 202.196 36.5899H196.944V43.0442H202.196C204.574 43.0442 205.567 41.7638 205.567 39.8302ZM224.313 53H211.144V34.395H224.313V36.7729H214.044V42.391H223.477V44.6382H214.044V50.6221H224.313V53ZM229.639 53H226.738V34.395H239.908V36.7729H229.639V42.391H239.072V44.6382H229.639V53ZM255.145 53H241.976V34.395H255.145V36.7729H244.876V42.391H254.309V44.6382H244.876V50.6221H255.145V53ZM271.994 39.6472C271.994 42.0251 270.845 43.6191 268.676 44.2462C270.688 44.7166 271.733 46.1015 271.733 48.1397V51.1186C271.733 51.9025 271.838 52.5558 271.994 53H269.251C269.016 52.5035 268.833 51.9286 268.833 51.1186V48.2442C268.833 45.8663 267.343 45.2392 265.357 45.2392H260.471V53H257.57V34.395H266.037C269.878 34.395 271.994 36.407 271.994 39.6472ZM269.094 39.8302C269.094 37.8965 268.101 36.5899 265.723 36.5899H260.471V43.0442H265.723C268.101 43.0442 269.094 41.7638 269.094 39.8302ZM289.095 39.6472C289.095 42.0251 287.945 43.6191 285.776 44.2462C287.788 44.7166 288.833 46.1015 288.833 48.1397V51.1186C288.833 51.9025 288.938 52.5558 289.095 53H286.351C286.116 52.5035 285.933 51.9286 285.933 51.1186V48.2442C285.933 45.8663 284.443 45.2392 282.458 45.2392H277.571V53H274.671V34.395H283.137C286.978 34.395 289.095 36.407 289.095 39.6472ZM286.194 39.8302C286.194 37.8965 285.201 36.5899 282.823 36.5899H277.571V43.0442H282.823C285.201 43.0442 286.194 41.7638 286.194 39.8302ZM308.312 53H305.307L303.686 48.7146H295.168L293.522 53H290.543L297.65 34.395H301.204L308.312 53ZM302.955 46.4673L299.427 37.0864L295.899 46.4673H302.955ZM322.27 53H310.198V34.395H313.099V50.6221H322.27V53ZM339.337 53.2613C333.458 53.2613 330.296 49.3678 330.296 43.6975C330.296 38.0271 333.458 34.1337 339.337 34.1337C344.407 34.1337 347.699 37.1648 347.699 41.0322H344.981C344.642 38.4452 342.813 36.5116 339.337 36.5116C335.287 36.5116 333.197 39.0985 333.197 43.6975C333.197 48.2965 335.287 50.8834 339.337 50.8834C342.76 50.8834 344.642 49.0543 344.981 46.206H347.699C347.699 50.1518 344.511 53.2613 339.337 53.2613ZM366.123 53H363.118L361.497 48.7146H352.979L351.333 53H348.354L355.461 34.395H359.015L366.123 53ZM360.766 46.4673L357.238 37.0864L353.711 46.4673H360.766ZM388.182 53H385.412V37.0603L379.324 53H376.841L370.779 37.0603V53H368.009V34.395H372.556L378.096 48.6884L383.635 34.395H388.182V53ZM405.709 40.2221C405.709 44.0111 403.2 46.0231 399.228 46.0231H394.185V53H391.285V34.395H399.228C403.2 34.395 405.709 36.4332 405.709 40.2221ZM402.808 40.2221C402.808 37.792 401.423 36.5899 398.837 36.5899H394.185V43.8281H398.837C401.423 43.8281 402.808 42.6523 402.808 40.2221ZM422.297 53H419.292L417.672 48.7146H409.154L407.507 53H404.528L411.636 34.395H415.19L422.297 53ZM416.941 46.4673L413.413 37.0864L409.885 46.4673H416.941ZM427.084 53H424.184V34.395H427.084V53ZM438.258 53.2613C432.509 53.2613 429.478 49.3678 429.478 43.6975C429.478 38.0271 432.64 34.1337 438.519 34.1337C443.85 34.1337 446.724 37.2693 446.724 40.6141H444.137C443.693 38.3146 441.812 36.5116 438.519 36.5116C434.469 36.5116 432.379 39.0985 432.379 43.6975C432.379 48.2965 434.469 50.8834 438.519 50.8834C442.387 50.8834 443.955 48.6362 444.111 45.1085H439.016V43.0965H446.881V53H444.712L444.477 49.5246C443.693 51.8503 441.786 53.2613 438.258 53.2613ZM465.255 53H462.094L452.504 38.4714V53H449.734V34.395H452.896L462.485 48.9236V34.395H465.255V53Z" fill="white"/>
<rect x="1.5" y="1.5" width="83" height="83" rx="41.5" fill="white"/>
<rect x="1.5" y="1.5" width="83" height="83" rx="41.5" stroke="#036E03" stroke-width="3"/>
<path d="M55.5287 24.1767L57.7108 21.5263L56.8198 21.1846L57.5167 19.2527L55.5273 21.5378L56.5507 21.8348L55.5287 24.1767Z" fill="#D9DAD9"/>
<path d="M62.5139 46.8511L64.5779 49.5936L65.1245 48.8143L66.8427 49.9497L65.0888 47.4807L64.5545 48.3987L62.5139 46.8511Z" fill="#D9DAD9"/>
<path d="M25.1104 23.7258L27.3095 30.1324L28.8142 28.9993L31.3479 32.1757L29.564 26.4714L27.9975 27.8726L25.1104 23.7258Z" fill="#D9DAD9"/>
<path d="M41.6901 60.2657L43.1699 54.9902L41.6451 55.0606L41.416 51.7874L39.9822 56.405L41.6717 56.1842L41.6901 60.2657Z" fill="#D9DAD9"/>
<path d="M34.3248 24.6846L34.3118 27.1544L34.9665 26.9432L35.4574 28.3399L35.5291 26.1616L34.8206 26.4576L34.3248 24.6846Z" fill="#D9DAD9"/>
<path d="M23.175 32.0303L24.7451 33.943L25.1149 33.3652L26.3869 34.1309L25.0486 32.4059L24.6918 33.0832L23.175 32.0303Z" fill="#D9DAD9"/>
<path d="M46.2604 52.3823L46.2473 54.8522L46.9023 54.6411L47.393 56.0376L47.4647 53.8593L46.7564 54.1555L46.2604 52.3823Z" fill="#D9DAD9"/>
<path d="M27.7534 45.1242C28.4574 47.5686 27.2217 50.0656 24.9932 50.7014C22.7648 51.3371 20.3876 49.8709 19.6836 47.4265C18.9795 44.9821 20.2152 42.4851 22.4437 41.8493C24.6721 41.2135 27.0493 42.6798 27.7534 45.1242Z" fill="#42616A"/>
<path d="M28.2834 45.0341C29.4346 48.2996 28.7774 51.5023 26.8153 52.1874C24.8532 52.8726 22.3294 50.7809 21.1781 47.5154C20.0269 44.25 20.6842 41.0473 22.6463 40.3622C24.6083 39.677 27.1321 41.7686 28.2835 45.034L28.2834 45.0341Z" fill="#6CC56C"/>
<path d="M37.8069 41.9125C39.0677 45.4884 38.2339 49.0354 35.9446 49.8349C33.6553 50.6344 30.7774 48.3835 29.5166 44.8076C28.2559 41.2315 29.0897 37.6846 31.379 36.8852C33.6683 36.0857 36.5461 38.3364 37.8068 41.9125H37.8069Z" fill="#6CC56C"/>
<path d="M35.0266 60.3198C33.4771 57.1391 33.9613 52.0628 33.9613 52.0628C33.9613 52.0628 33.8321 51.1312 33.9613 50.7456C34.0905 50.3601 35.9446 49.8349 35.9446 49.8349L31.5275 36.8384L22.2798 40.5274L25.2326 52.1941C25.2326 52.1941 25.6972 56.7214 26.0201 58.7775C26.3428 60.8338 26.7948 63.7254 27.2144 64.8177C27.634 65.91 29.5711 66.0385 30.6041 66.1671C31.6371 66.2957 35.5431 64.4 35.9446 63.8217C36.346 63.2434 36.5762 63.5004 35.0266 60.3197V60.3198Z" fill="#6CC56C"/>
<path d="M35.7003 49.9082C35.8494 49.8618 35.9448 49.8348 35.9448 49.8348C35.915 49.8453 35.8848 49.8552 35.8547 49.8646C35.8241 49.8743 35.7935 49.8832 35.7626 49.8917C35.742 49.8974 35.7211 49.9029 35.7003 49.9082ZM35.9448 49.8348L35.7656 49.3076C36.0487 49.3101 36.4158 49.3133 36.853 49.317C36.5827 49.5427 36.2792 49.7181 35.9448 49.8349V49.8348ZM31.7233 37.4135L31.5278 36.8383L31.0029 37.0477C31.1235 36.9849 31.249 36.9306 31.3793 36.8852C31.6912 36.7762 32.0142 36.7239 32.3426 36.7239C32.4766 36.7239 32.6114 36.7325 32.7469 36.7498C32.3841 36.9912 32.0773 37.188 31.842 37.3383C31.8002 37.3649 31.7607 37.3899 31.7233 37.4135Z" fill="#6CC56C"/>
<path d="M34.9813 49.9962C32.901 49.9962 30.6057 47.8962 29.5168 44.8076C28.3278 41.435 29.002 38.0882 31.0029 37.0477L31.5277 36.8384L31.7233 37.4136C31.6089 37.486 31.5156 37.5451 31.4445 37.5902C31.4015 37.6177 31.3674 37.6395 31.3413 37.656C31.3207 37.6694 31.3092 37.6773 31.3073 37.6796C29.9181 38.53 29.4926 41.1072 30.2961 43.8698C30.3237 43.9709 30.3519 44.0642 30.3802 44.1452C30.4139 44.2513 30.4497 44.3577 30.4873 44.4642C31.4869 47.2993 33.4496 49.2668 35.1314 49.2667L35.1403 49.2936C35.1403 49.2947 35.1533 49.2958 35.1784 49.2969C35.207 49.2977 35.2438 49.2988 35.2898 49.3003C35.3921 49.3019 35.5355 49.3042 35.718 49.3072C35.7336 49.3073 35.7494 49.3075 35.7656 49.3076L35.9449 49.8348C35.9449 49.8348 35.8494 49.8619 35.7003 49.9081C35.4651 49.9673 35.2248 49.996 34.9814 49.996L34.9813 49.9962Z" fill="#6CC56C"/>
<path d="M31.3072 37.6802C31.3072 37.6802 35.858 35 38.2087 32.3341C40.1213 30.1649 42.7462 26.5122 42.7462 26.5122L54.8281 51.7581C54.8281 51.7581 48.5411 49.3641 42.7462 49.3097C37.2182 49.2578 35.1402 49.2937 35.1402 49.2937L31.3071 37.6803L31.3072 37.6802Z" fill="#D9DAD9"/>
<path d="M36.995 42.1916C38.1297 45.4102 37.5929 48.5283 35.7958 49.1559C33.9987 49.7835 31.622 47.6829 30.4873 44.4642C29.3525 41.2454 29.8894 38.1275 31.6864 37.4997C33.4835 36.8723 35.8602 38.9728 36.9951 42.1916H36.995Z" fill="#D9DAD9"/>
<path d="M30.38 44.1452C30.3517 44.0643 30.3235 43.9709 30.2959 43.8699C30.3226 43.9614 30.3506 44.0533 30.38 44.1452Z" fill="#6CC56C" fill-opacity="0.5"/>
<path d="M37.1337 42.6118C37.0906 42.4722 37.0443 42.3319 36.9948 42.1917C36.6425 41.192 36.1702 40.3002 35.6328 39.5645C37.8818 38.0126 39.8613 36.0057 41.5978 33.8396C41.838 35.7818 42.2957 37.8388 42.983 39.9245C43.163 40.4707 43.3547 41.0064 43.5565 41.5297C43.4029 41.5251 43.2498 41.5228 43.0972 41.5228C41.0285 41.5228 39.0449 41.9377 37.1337 42.6119V42.6118Z" fill="#E2E3E3"/>
<path d="M30.9742 45.6299C30.9742 45.6299 30.5977 44.7644 30.3826 44.1531C30.3816 44.1506 30.3807 44.148 30.3799 44.1454C30.3505 44.0535 30.3225 43.9616 30.2959 43.8701C30.1138 43.2044 29.9546 42.2046 29.9546 42.2046C32.0151 41.6824 33.9035 40.758 35.6328 39.5647C36.1702 40.3004 36.6424 41.1922 36.9948 42.1919C37.0442 42.3321 37.0906 42.4723 37.1337 42.612C34.9966 43.3659 32.9498 44.4442 30.9743 45.63L30.9742 45.6299Z" fill="#E2E3E3"/>
<path d="M27.2591 64.9192C27.2428 64.8863 27.2279 64.8526 27.2144 64.8178C27.1458 64.639 27.0761 64.4119 27.0064 64.1481C26.9926 64.0959 26.9788 64.0421 26.9649 63.9873C26.6564 62.7585 26.3475 60.8574 26.0996 59.284C26.0889 59.2166 26.0784 59.1496 26.0681 59.0834C26.0517 58.9798 26.0358 58.8778 26.0201 58.7777C25.878 57.872 25.7082 56.4869 25.5627 55.2204C25.5553 55.155 25.5479 55.0902 25.5405 55.0255C25.3666 53.4989 25.2327 52.1942 25.2327 52.1942C25.2327 52.1942 30.2294 49.9534 30.8432 49.9534C30.8686 49.9534 30.8867 49.9573 30.8963 49.9653C31.1399 50.1672 30.45 54.4131 31.5456 57.4191C32.5653 60.2166 33.4813 62.0933 33.5867 62.3605L33.5817 62.362C33.4428 62.4018 33.3034 62.4426 33.1636 62.4846C33.1056 62.5019 33.0473 62.52 32.989 62.5377C32.9448 62.5512 32.9007 62.5646 32.8565 62.5781C32.8123 62.5918 32.7682 62.6055 32.7238 62.6193C32.6594 62.6394 32.5949 62.6601 32.5303 62.6806C32.4472 62.7072 32.364 62.7337 32.2808 62.761C32.2141 62.7827 32.1475 62.8049 32.0807 62.8271C31.9987 62.8544 31.9168 62.882 31.8347 62.9102C31.7672 62.9331 31.7 62.9563 31.6327 62.9798C31.5501 63.0085 31.4675 63.0379 31.3848 63.0675C31.3187 63.0912 31.2525 63.1148 31.1864 63.1389C31.1426 63.1549 31.0991 63.1709 31.0555 63.1872C31.0118 63.2034 30.9683 63.2198 30.9247 63.2361C30.8634 63.2591 30.8021 63.2818 30.7407 63.3052C30.6375 63.3446 30.5346 63.385 30.4316 63.4256C30.4283 63.4269 30.4249 63.4283 30.4215 63.4295C30.3778 63.4468 30.334 63.4635 30.2904 63.4809C30.1479 63.5379 30.0056 63.5963 29.8637 63.6556C29.8072 63.6793 29.7507 63.7039 29.6943 63.728C29.6035 63.7667 29.5125 63.8053 29.422 63.8451C29.3588 63.8728 29.2959 63.9012 29.2329 63.9294C29.1494 63.9668 29.0662 64.0043 28.9831 64.0425C28.9177 64.0725 28.8525 64.1031 28.7873 64.1337C28.7468 64.1528 28.7063 64.1718 28.666 64.1911C28.6256 64.2103 28.5854 64.2295 28.545 64.249C28.4802 64.2805 28.4152 64.3121 28.3505 64.344C28.2694 64.3841 28.1887 64.4248 28.1081 64.4656C28.0449 64.4976 27.9818 64.5297 27.9189 64.5621C27.8343 64.606 27.7504 64.6509 27.6663 64.6958C27.6088 64.7265 27.551 64.7568 27.4939 64.788C27.4152 64.831 27.3374 64.8751 27.2592 64.919L27.2591 64.9192Z" fill="#6CC56C"/>
<path d="M35.7407 64.0195C35.8367 63.9437 35.9065 63.8769 35.9446 63.8218C35.9449 63.8212 35.9453 63.8207 35.9458 63.8201C35.9455 63.8207 35.9449 63.8213 35.9446 63.8218C35.9065 63.8769 35.8367 63.9436 35.7407 64.0195Z" fill="#A3A5A7"/>
<path d="M35.946 63.8212C35.9465 63.8205 35.947 63.8199 35.9474 63.8193C35.947 63.8199 35.9466 63.8205 35.946 63.8212ZM35.9489 63.817C35.9493 63.8164 35.9497 63.8159 35.95 63.8153C35.9497 63.8158 35.9493 63.8164 35.9489 63.817ZM35.9518 63.8129C35.9521 63.8126 35.9524 63.8122 35.9526 63.8118C35.9523 63.8122 35.952 63.8127 35.9518 63.8129Z" fill="#A3A5A7"/>
<path d="M30.7141 66.1735C30.711 66.1735 30.7077 66.1735 30.7046 66.1735C30.6685 66.1731 30.6351 66.1711 30.6041 66.1673C29.6039 66.0428 27.7568 65.9183 27.2593 64.9193C27.3373 64.8755 27.4152 64.8313 27.4938 64.7883C27.5509 64.757 27.6087 64.7269 27.6662 64.696C27.7503 64.6512 27.8342 64.6062 27.9189 64.5624C27.9817 64.5298 28.0448 64.4979 28.108 64.4659C28.1886 64.4249 28.2693 64.3843 28.3504 64.3443C28.4151 64.3123 28.48 64.2808 28.545 64.2493C28.5853 64.2298 28.6256 64.2104 28.6659 64.1913C28.7063 64.172 28.7467 64.153 28.7872 64.1339C28.8524 64.1032 28.9176 64.0728 28.983 64.0427C29.0661 64.0045 29.1494 63.967 29.2328 63.9297C29.2957 63.9015 29.3587 63.8731 29.4219 63.8453C29.5124 63.8057 29.6034 63.767 29.6942 63.7282C29.7507 63.7042 29.8071 63.6796 29.8636 63.6559C30.0055 63.5965 30.1478 63.5381 30.2903 63.4812C30.334 63.4638 30.3778 63.447 30.4215 63.4298C30.4247 63.4285 30.4281 63.4271 30.4315 63.4259C30.5344 63.3853 30.6374 63.3449 30.7406 63.3054C30.802 63.2821 30.8633 63.2593 30.9246 63.2364C30.9683 63.2201 31.0118 63.2037 31.0555 63.1874C31.099 63.1713 31.1427 63.1552 31.1863 63.1391C31.2524 63.1151 31.3186 63.0915 31.3847 63.0678C31.4675 63.0381 31.55 63.0088 31.6327 62.98C31.6999 62.9566 31.7672 62.9333 31.8346 62.9104C31.9167 62.8822 31.9986 62.8546 32.0806 62.8274C32.1474 62.8052 32.2141 62.7829 32.2807 62.7612C32.364 62.734 32.4471 62.7074 32.5302 62.6809C32.5947 62.6604 32.6593 62.6396 32.7237 62.6195C32.7681 62.6056 32.8122 62.592 32.8564 62.5784C32.9006 62.5649 32.9448 62.5515 32.9889 62.538C33.0472 62.5203 33.1056 62.5021 33.1636 62.4848C33.3034 62.4429 33.4428 62.4019 33.5816 62.3622L33.5867 62.3607L33.5987 62.3572C34.556 62.5568 35.34 62.7462 36.1944 62.9537C36.3239 63.4362 36.1633 63.5105 35.9517 63.8119C35.9514 63.8122 35.9511 63.8127 35.951 63.8129C35.9509 63.8131 35.9507 63.8132 35.9506 63.8135C35.9503 63.8138 35.95 63.8143 35.9496 63.8146C35.9496 63.8148 35.9495 63.8149 35.9494 63.8151C35.9491 63.8155 35.9487 63.816 35.9484 63.8166C35.9484 63.8167 35.9482 63.8167 35.9482 63.8168C35.9479 63.8175 35.9475 63.818 35.9471 63.8184L35.947 63.8186C35.9466 63.8191 35.9463 63.8197 35.9458 63.8203C35.9457 63.8203 35.9457 63.8205 35.9457 63.8205C35.9452 63.8211 35.9448 63.8216 35.9445 63.8222C35.9064 63.8772 35.8366 63.944 35.7406 64.0199C34.8596 64.7165 31.7726 66.174 30.714 66.1739L30.7141 66.1735Z" fill="#6CC56C"/>
<path d="M30.4315 63.4258C30.5345 63.3852 30.6375 63.3448 30.7406 63.3053C30.6375 63.3448 30.5345 63.3852 30.4315 63.4258ZM30.9246 63.2363C30.9682 63.22 31.0118 63.2036 31.0554 63.1874C31.0117 63.2035 30.9681 63.22 30.9246 63.2363ZM31.8347 62.9103C31.9168 62.8821 31.9988 62.8545 32.0807 62.8273C31.9988 62.8545 31.9168 62.8822 31.8347 62.9103ZM32.2808 62.761C32.3639 62.7338 32.4471 62.7073 32.5302 62.6807C32.4471 62.7073 32.364 62.7338 32.2808 62.761ZM32.7238 62.6193C32.7681 62.6054 32.8123 62.5917 32.8565 62.5781C32.8123 62.5917 32.7681 62.6055 32.7238 62.6193Z" fill="#6CC56C"/>
<path d="M32.27 51.0656C32.27 51.0656 31.9049 51.0987 31.8053 51.1977C31.7058 51.2968 31.5738 55.9537 32.0377 56.714C32.0652 56.759 32.0044 56.7471 32.27 56.9121C32.5354 57.0774 33.7696 57.5995 34.1482 57.3549C34.5268 57.1104 35.4229 56.3176 35.3566 55.9872C35.2902 55.6569 34.9516 55.4044 34.5554 54.6388C34.1997 53.9514 34.0622 51.7579 34.0622 51.7579C33.9231 51.6961 32.4765 51.0341 32.27 51.0655V51.0656Z" fill="#EFEFEF"/>
<path d="M34.0631 51.7583C34.0627 51.7581 34.0624 51.7581 34.0621 51.758C34.0624 51.7581 34.0627 51.7582 34.0631 51.7583ZM34.0615 51.7577C34.0613 51.7576 34.0611 51.7574 34.0608 51.7573C34.0611 51.7574 34.0614 51.7576 34.0615 51.7577ZM34.0589 51.7563C34.056 51.755 34.0529 51.7537 34.0493 51.7521C34.0529 51.7537 34.0561 51.755 34.0589 51.7563Z" fill="#ABAEAF"/>
<path d="M35.3568 55.9994C34.8928 55.7338 33.7664 55.439 33.6857 55.4189C33.685 55.4186 33.6842 55.4185 33.6834 55.4185C33.6831 55.4185 33.6828 55.4186 33.6825 55.4186C33.6822 55.4186 33.6819 55.4185 33.6816 55.4185C33.673 55.4185 33.6564 55.4271 33.6343 55.4416C33.5211 55.2827 33.0808 54.6216 32.87 53.6778C32.6352 52.6259 32.3663 51.1902 32.3486 51.0723C32.6972 51.1398 33.8246 51.6512 34.0378 51.7471H34.038C34.0382 51.7473 34.0386 51.7474 34.0389 51.7475C34.0424 51.7491 34.0456 51.7506 34.0487 51.7519L34.0488 51.7521C34.0523 51.7536 34.0554 51.7549 34.0581 51.7561C34.0581 51.7563 34.0582 51.7563 34.0582 51.7563C34.0583 51.7563 34.0585 51.7564 34.0585 51.7564C34.0586 51.7564 34.0586 51.7564 34.0586 51.7564C34.0586 51.7566 34.0588 51.7566 34.0589 51.7566C34.0591 51.7567 34.0594 51.7569 34.0596 51.7569H34.0597C34.0598 51.7571 34.0598 51.7571 34.06 51.7571C34.0603 51.7572 34.0605 51.7574 34.0606 51.7575C34.0609 51.7575 34.061 51.7577 34.0613 51.7577C34.0615 51.7579 34.0619 51.758 34.0622 51.7581C34.0622 51.7581 34.1997 53.9516 34.5555 54.639C34.9517 55.4045 35.2902 55.6571 35.3566 55.9873L35.3569 55.9994H35.3568Z" fill="#A3A5A7"/>
<path d="M34.1485 57.3561C34.1483 57.3557 34.1483 57.3555 34.1482 57.3551C34.1483 57.3551 34.1482 57.3551 34.1483 57.3551C34.5123 57.12 35.3544 56.3784 35.3601 56.0278C35.3596 56.0655 35.3494 56.1078 35.3311 56.1535C35.1794 56.5321 34.4749 57.1453 34.1499 57.3551C34.1494 57.3554 34.1489 57.3558 34.1484 57.3561H34.1485Z" fill="#7B7E7F"/>
<path d="M33.8689 57.4191C33.9828 57.4185 34.0794 57.3994 34.1481 57.355C34.1482 57.3555 34.1482 57.3556 34.1484 57.356C34.0795 57.3998 33.9827 57.4186 33.869 57.4191H33.8689Z" fill="#6CC56C" fill-opacity="0.5"/>
<path d="M33.8646 57.419C33.3491 57.419 32.4883 57.0469 32.2717 56.9122C32.2168 56.8781 32.1766 56.8519 32.1458 56.831C32.4067 56.5726 33.394 55.601 33.6361 55.4417C33.6574 55.4277 33.6736 55.4192 33.6825 55.4187C33.683 55.4187 33.6837 55.4189 33.6841 55.419C33.7648 55.439 34.894 55.7346 35.3568 56.0004V55.9995C35.3573 55.9998 35.358 56.0001 35.3586 56.0004C35.3597 56.0093 35.3602 56.0184 35.3601 56.0278C35.3544 56.3784 34.5123 57.1199 34.1483 57.3551C34.1482 57.3551 34.1483 57.3551 34.1482 57.3551C34.0796 57.3995 33.9829 57.4186 33.8689 57.4192C33.8674 57.4192 33.8661 57.4192 33.8646 57.4192V57.419Z" fill="#767A7B"/>
<path d="M35.3569 56.0005C34.8941 55.7346 33.7649 55.4391 33.6842 55.4191C33.6837 55.419 33.6831 55.4188 33.6826 55.4188C33.6829 55.4188 33.6832 55.4187 33.6835 55.4187C33.6843 55.4187 33.6851 55.4188 33.6858 55.4191C33.7665 55.439 34.8929 55.7339 35.3569 55.9995V56.0005Z" fill="#56595A"/>
<path d="M35.8676 62.9459C35.8673 62.9481 35.8368 62.9462 35.7791 62.9403C35.7211 62.9349 35.6363 62.9224 35.5279 62.9013C35.3106 62.8615 35.0027 62.7742 34.6257 62.6624C34.437 62.6078 34.2297 62.5496 34.0042 62.5053C33.7781 62.4598 33.5344 62.4324 33.2807 62.4819C32.7707 62.5671 32.2534 62.8276 31.6815 63.0137C30.5471 63.4054 29.5509 63.8418 28.8469 64.1908C28.4946 64.3646 28.2135 64.5136 28.0201 64.6181C27.9278 64.6678 27.8538 64.7077 27.7973 64.7383C27.7461 64.7654 27.7186 64.7787 27.7176 64.7768C27.7164 64.775 27.7417 64.7578 27.7908 64.7271C27.8402 64.6968 27.9126 64.6514 28.0079 64.5962C28.1977 64.4851 28.476 64.3297 28.8265 64.1504C29.5267 63.7903 30.5231 63.3458 31.6603 62.9534C32.2288 62.7689 32.7472 62.5087 33.271 62.4239C33.4008 62.4012 33.5307 62.3936 33.6563 62.4014C33.7821 62.4093 33.9001 62.4311 34.0146 62.4535C34.2429 62.5006 34.4506 62.5618 34.639 62.6192C35.015 62.7367 35.3186 62.8299 35.5333 62.8772C35.6403 62.9017 35.724 62.9182 35.7811 62.9277C35.8382 62.9377 35.868 62.9438 35.8678 62.9461L35.8676 62.9459Z" fill="#2C3C43"/>
<path d="M33.7016 55.4362C33.7073 55.4435 33.6187 55.5193 33.4752 55.6409C33.3318 55.7624 33.1346 55.9308 32.9219 56.1227C32.7094 56.3148 32.522 56.494 32.3867 56.6245C32.2513 56.7549 32.167 56.8353 32.1603 56.8291C32.154 56.8234 32.2267 56.732 32.3542 56.593C32.4816 56.4541 32.6651 56.2686 32.8788 56.0754C33.0926 55.8824 33.2958 55.7184 33.447 55.6057C33.5982 55.4926 33.6967 55.4295 33.7017 55.4363L33.7016 55.4362Z" fill="#2C3C43"/>
<path d="M33.4278 55.1269C33.4244 55.129 33.3915 55.0858 33.3395 55.0025C33.2871 54.9196 33.2186 54.7947 33.1475 54.6339C33.0015 54.3133 32.8773 53.8418 32.7692 53.321C32.656 52.8003 32.5682 52.3251 32.5221 51.9785C32.4986 51.8054 32.4838 51.6646 32.4768 51.5672C32.4697 51.4696 32.4688 51.4155 32.473 51.415C32.4777 51.4145 32.4868 51.4678 32.5016 51.5643C32.5191 51.6736 32.541 51.8099 32.567 51.9717C32.6245 52.3154 32.719 52.7874 32.832 53.3077C32.9402 53.8288 33.0559 54.2955 33.1894 54.6167C33.319 54.9389 33.4381 55.1208 33.4278 55.1269Z" fill="#2C3C43"/>
<path d="M35.2443 55.9468C35.2357 55.9639 34.8988 55.803 34.4629 55.6599C34.0276 55.515 33.6609 55.4435 33.6643 55.4246C33.6658 55.4163 33.7596 55.4237 33.909 55.4508C34.0584 55.4777 34.263 55.5266 34.4832 55.5991C34.7034 55.6721 34.8965 55.7547 35.0324 55.8221C35.1685 55.8894 35.248 55.9393 35.2442 55.9468H35.2443Z" fill="#2C3C43"/>
<path d="M21.6257 46.2753C21.2633 45.6787 21.1151 44.9561 21.2136 44.2659L23.0485 43.5642L23.5423 45.5155C22.8296 45.779 22.1588 46.0412 21.6257 46.2754V46.2753Z" fill="#6CC56C"/>
<path d="M23.5423 45.5154L23.0486 43.5641C28.4131 41.5129 27.3984 40.6298 28.5421 43.8112C28.5421 43.8112 25.8267 44.6705 23.5423 45.5154Z" fill="#6CC56C"/>
<path d="M31.3793 36.8853C31.3796 36.8863 31.3653 36.8932 31.3373 36.9053C31.3062 36.9184 31.2647 36.9359 31.2123 36.958C31.1033 37.0061 30.9453 37.0843 30.7565 37.208C30.3817 37.4547 29.8941 37.9241 29.5465 38.6547C29.1923 39.3778 28.9697 40.3334 28.9608 41.3983C28.9453 42.4634 29.1407 43.6357 29.5471 44.7967C29.9586 45.9562 30.5422 46.9933 31.2232 47.8153C31.8987 48.6414 32.6726 49.2491 33.4032 49.5932C34.1332 49.9474 34.8086 50.0105 35.2561 49.9703C35.4812 49.9493 35.6537 49.9123 35.7687 49.882C35.8237 49.8666 35.8669 49.8545 35.8995 49.8454C35.929 49.8375 35.9444 49.834 35.9448 49.835C35.9451 49.836 35.9305 49.8416 35.9014 49.8517C35.8693 49.8623 35.8265 49.8765 35.7722 49.8944C35.6577 49.9289 35.485 49.9702 35.2583 49.9951C34.808 50.0435 34.1235 49.9867 33.3837 49.6342C32.6435 49.2918 31.8602 48.6824 31.1774 47.8528C30.4893 47.0271 29.9004 45.9843 29.4864 44.8178C29.0776 43.65 28.8827 42.4699 28.9016 41.3975C28.9138 40.3252 29.1428 39.3623 29.5057 38.6347C29.862 37.8996 30.3607 37.4294 30.7428 37.1871C30.9354 37.0655 31.0963 36.9904 31.2074 36.9461C31.2611 36.9263 31.3035 36.9107 31.3352 36.899C31.3641 36.8889 31.3791 36.8841 31.3794 36.8852L31.3793 36.8853Z" fill="#2C3C43"/>
<path d="M33.9952 50.7942C33.9948 50.7984 33.9519 50.798 33.8745 50.7933C33.7971 50.7891 33.6856 50.7784 33.548 50.761C33.2731 50.7269 32.8951 50.6605 32.4861 50.5524C32.0769 50.4435 31.7158 50.3137 31.4603 50.2072C31.3326 50.1539 31.2304 50.108 31.1611 50.0733C31.0916 50.0391 31.0542 50.0181 31.056 50.0143C31.0601 50.0053 31.2182 50.0698 31.477 50.165C31.7356 50.2603 32.0963 50.3823 32.5026 50.4904C32.9088 50.598 33.2827 50.6708 33.5547 50.7163C33.8266 50.762 33.9962 50.7844 33.9952 50.7942Z" fill="#2C3C43"/>
<path d="M30.5605 49.9473C30.5674 49.9635 29.3779 50.4809 27.9039 51.1025C26.4293 51.7244 25.2289 52.2151 25.222 52.1989C25.215 52.1827 26.4043 51.6655 27.8788 51.0436C29.3528 50.4219 30.5535 49.9311 30.5605 49.9474V49.9473Z" fill="#2C3C43"/>
<path d="M42.7463 26.5122C42.7472 26.5129 42.7397 26.5249 42.7246 26.5479C42.7072 26.5735 42.6843 26.6068 42.6556 26.6488C42.5911 26.7398 42.5 26.8683 42.3838 27.0322C42.1457 27.3638 41.798 27.8412 41.3614 28.4261C40.9246 29.0108 40.3991 29.7032 39.8007 30.4607C39.5009 30.8389 39.1836 31.234 38.8464 31.6371C38.6787 31.8393 38.5049 32.0426 38.3264 32.2471C38.1493 32.4528 37.9554 32.6499 37.7671 32.8557C36.9816 33.6504 36.1612 34.3307 35.3972 34.9229C34.6317 35.5139 33.9185 36.0144 33.3122 36.423C32.7057 36.8316 32.204 37.146 31.8555 37.3596C31.6812 37.4665 31.5444 37.5473 31.4514 37.6013C31.4069 37.6265 31.3718 37.6464 31.3448 37.6617C31.3205 37.6748 31.3078 37.6811 31.3071 37.6803C31.3066 37.6793 31.3183 37.6712 31.3414 37.6561C31.3675 37.6394 31.4016 37.6178 31.4445 37.5903C31.5388 37.5306 31.6721 37.446 31.8421 37.3385C32.1865 37.1185 32.6839 36.7986 33.2866 36.3857C33.8891 35.9727 34.5987 35.469 35.3608 34.8764C36.1213 34.2828 36.9388 33.6025 37.721 32.8111C37.9086 32.6062 38.101 32.4104 38.278 32.2054C38.4564 32.0015 38.6301 31.7987 38.7979 31.597C39.1354 31.1952 39.4534 30.8012 39.7542 30.4243C40.3547 29.6693 40.8837 28.98 41.325 28.3991C41.7617 27.8182 42.1157 27.3472 42.3635 27.0176C42.4838 26.8568 42.5783 26.7307 42.6451 26.6414C42.676 26.6009 42.7006 26.5688 42.7193 26.5443C42.7362 26.5226 42.7454 26.5118 42.7464 26.5124L42.7463 26.5122Z" fill="#2C3C43"/>
<path d="M35.1401 49.2938C35.1401 49.2927 35.1529 49.2916 35.178 49.2906C35.2066 49.2899 35.2433 49.289 35.2894 49.2877C35.3916 49.2865 35.535 49.2848 35.7174 49.2826C36.0939 49.281 36.6307 49.2787 37.2923 49.2759C38.626 49.2762 40.4612 49.2769 42.4884 49.2775C44.5226 49.2765 46.3501 49.5538 47.6565 49.7929C48.3106 49.914 48.8362 50.0303 49.1983 50.1145C49.3796 50.1559 49.5196 50.1912 49.6145 50.215C49.6591 50.2266 49.6947 50.2358 49.7223 50.2431C49.7465 50.2498 49.7588 50.2538 49.7585 50.2547C49.7582 50.2559 49.7455 50.254 49.7208 50.2494C49.6926 50.2438 49.6567 50.2365 49.6116 50.2276C49.5116 50.2064 49.3714 50.1767 49.1929 50.1389C48.8293 50.0622 48.3027 49.9528 47.6484 49.8374C46.341 49.6098 44.5172 49.3405 42.4878 49.3414C40.461 49.3335 38.6263 49.3263 37.2927 49.3212C36.6312 49.3155 36.0942 49.3108 35.7179 49.3076C35.5354 49.3047 35.392 49.3023 35.2897 49.3007C35.2437 49.2992 35.2069 49.2982 35.1783 49.2973C35.1532 49.2962 35.1402 49.2951 35.1402 49.294L35.1401 49.2938Z" fill="#2C3C43"/>
<path d="M49.785 50.2983L48.718 50.0403C48.8979 50.0766 49.0569 50.11 49.1929 50.1387C49.3713 50.1766 49.5115 50.2062 49.6115 50.2274C49.6567 50.2365 49.6927 50.2436 49.7207 50.2493C49.7275 50.2505 49.7335 50.2516 49.7385 50.2525C49.7542 50.2679 49.7694 50.2829 49.7849 50.2983H49.785Z" fill="#ABAEAF"/>
<path d="M49.7315 50.2454C49.7287 50.2447 49.7256 50.2439 49.7223 50.2429C49.6946 50.2356 49.6591 50.2264 49.6145 50.2148C49.5196 50.191 49.3796 50.1557 49.1983 50.1144C49.0265 50.0744 48.8178 50.0272 48.5763 49.9758C46.6586 47.8868 44.8829 44.9671 43.5565 41.5297C43.8006 41.537 44.0459 41.5501 44.2924 41.5693C45.7331 45.1823 47.6689 48.1995 49.7315 50.2454ZM41.5977 33.8396C41.3443 31.7893 41.3334 29.867 41.5505 28.1717C41.825 27.8019 42.058 27.483 42.2437 27.2263C41.9514 28.9642 41.9147 30.9739 42.1507 33.134C41.9691 33.3709 41.785 33.606 41.5977 33.8395V33.8396Z" fill="#949899"/>
<path d="M44.2923 41.5692C44.0458 41.55 43.8006 41.5369 43.5564 41.5296C43.3545 41.0063 43.1628 40.4706 42.9829 39.9244C42.2955 37.8387 41.8378 35.7818 41.5977 33.8395C41.7849 33.6059 41.969 33.3708 42.1506 33.134C42.3754 35.192 42.8476 37.3871 43.582 39.6154C43.8022 40.2836 44.0396 40.9356 44.2923 41.5692Z" fill="#9B9E9F"/>
<path d="M42.1123 27.3513L42.2567 27.1494C42.2559 27.1538 42.2552 27.1576 42.2545 27.1621C42.2098 27.2215 42.1623 27.2847 42.1123 27.3513Z" fill="#ABAEAF"/>
<path d="M41.5505 28.1717C41.5524 28.1572 41.5544 28.1428 41.5562 28.1284L42.1124 27.3513C42.1624 27.2847 42.2099 27.2215 42.2546 27.1621C42.2508 27.1835 42.2473 27.2047 42.2437 27.2262C42.0581 27.4829 41.8251 27.8019 41.5505 28.1717Z" fill="#273035"/>
<path d="M49.7387 50.2525C49.7337 50.2516 49.7276 50.2506 49.7209 50.2493C49.6927 50.2437 49.6568 50.2364 49.6117 50.2275C49.5117 50.2062 49.3715 50.1766 49.193 50.1388C49.0569 50.11 48.898 50.0767 48.7182 50.0403L48.6121 50.0147C48.6003 50.0017 48.5883 49.9888 48.5764 49.9758C48.818 50.0273 49.0265 50.0745 49.1984 50.1144C49.3797 50.1557 49.5197 50.1911 49.6146 50.2149C49.6592 50.2265 49.6948 50.2357 49.7224 50.2429C49.7257 50.2439 49.7288 50.2448 49.7316 50.2455C49.734 50.2478 49.7364 50.2502 49.7387 50.2525Z" fill="#273035"/>
<path d="M59.2572 34.4989C62.1459 43.2645 60.9786 51.516 56.6501 52.9289C52.3215 54.3418 46.4707 48.3812 43.582 39.6156C40.6934 30.8499 41.8607 22.5985 46.1893 21.1856C50.5178 19.7726 56.3685 25.7331 59.2573 34.4989H59.2572Z" fill="#6CC56C"/>
<path d="M56.9073 35.3928C59.2864 42.6123 58.8671 49.2312 55.9709 50.1766C53.0747 51.1218 48.7983 46.0359 46.4192 38.8164C44.04 31.5971 44.4592 24.9781 47.3554 24.0328C50.2517 23.0873 54.5282 28.1735 56.9074 35.3928H56.9073Z" fill="#D9DAD9"/>
<path d="M56.1352 50.5699C55.6594 50.5697 55.1624 50.455 54.6542 50.2364C54.7168 50.2487 54.7786 50.2588 54.8403 50.2669C54.9828 50.2874 55.1139 50.2953 55.2319 50.2953C55.4027 50.2953 55.5463 50.2786 55.6584 50.259C55.6614 50.2584 55.6642 50.2577 55.6671 50.257C55.7731 50.2386 55.8773 50.2126 55.9799 50.1793C58.8761 49.2339 59.2953 42.615 56.9161 35.3955C54.927 29.3597 51.6119 24.8151 48.8858 24.0396C48.6105 23.9606 48.3408 23.9197 48.0794 23.9197C47.8302 23.9197 47.5881 23.9568 47.3551 24.0328C47.3549 24.0328 47.3553 24.0328 47.3551 24.0328C47.3551 24.0328 47.3326 24.0397 47.2894 24.0555C47.2716 24.0618 47.2541 24.0685 47.2364 24.0754C47.2075 24.0864 47.1734 24.1 47.1345 24.1163C47.4306 23.8539 47.7604 23.6586 48.1244 23.5398C48.3997 23.4499 48.685 23.4062 48.9786 23.4062C52.0902 23.4062 56.1015 28.3135 58.3382 35.1007C60.7859 42.5282 60.1814 49.3941 56.9881 50.4364C56.7132 50.5262 56.4282 50.5698 56.135 50.5698L56.1352 50.5699Z" fill="#6CC56C"/>
<path d="M47.2366 24.0753C47.2543 24.0684 47.2719 24.0618 47.2896 24.0554C47.2744 24.061 47.2568 24.0675 47.2366 24.0753ZM47.3025 24.0568C47.3362 24.0422 47.3539 24.0334 47.3553 24.0328C47.3551 24.0328 47.3555 24.0328 47.3553 24.0328C47.5883 23.9567 47.8304 23.9197 48.0796 23.9197C48.3411 23.9197 48.6106 23.9605 48.886 24.0396C48.6137 23.9622 48.3474 23.9223 48.0888 23.9223C47.8396 23.9223 47.5975 23.9595 47.3645 24.0355C47.3438 24.0422 47.323 24.0493 47.3025 24.0569V24.0568Z" fill="#949899"/>
<path d="M45.5623 36.0627L53.1078 34.4365L54.477 38.5913L47.6246 42.2044C47.6246 42.2044 45.6867 37.9419 45.5623 36.0627H45.5623Z" fill="#6CC56C"/>
<path d="M48.6283 41.6804C48.6278 41.6794 48.6273 41.6781 48.627 41.6771L48.7084 41.6328L49.1163 41.4177L48.6284 41.6804H48.6283Z" fill="#ABAEAF"/>
<path d="M46.7959 35.7968L47.668 35.6089L46.7959 35.7968Z" fill="#ABAEAF"/>
<path d="M48.7083 41.6328L49.1104 41.4146C49.1143 41.4166 49.1164 41.4176 49.1164 41.4176L49.1161 41.4176L48.7083 41.6327V41.6328ZM47.0537 36.8458C46.9632 36.4974 46.8772 36.1474 46.7958 35.7968L47.6679 35.6089C47.614 35.6311 47.2942 36.1525 47.0537 36.8458ZM45.627 36.2725L45.5623 36.0627L45.5756 36.0599C45.5925 36.1306 45.6096 36.2016 45.627 36.2725Z" fill="#6CC56C"/>
<path d="M54.8474 36.1696C55.2254 37.3168 55.0597 38.401 54.4769 38.5914C53.8942 38.7815 53.1154 38.0057 52.7373 36.8584C52.3591 35.711 52.525 34.6268 53.1077 34.4367C53.6904 34.2463 54.4693 35.0223 54.8474 36.1696V36.1696Z" fill="#6CC56C"/>
<path d="M54.8474 36.1697C54.8453 36.1703 54.8307 36.136 54.8049 36.0702C54.7809 36.0036 54.7404 35.9076 54.6859 35.7852C54.6293 35.6638 54.5563 35.5166 54.4563 35.355C54.3585 35.1921 54.2297 35.0164 54.0639 34.8451C53.899 34.6775 53.6847 34.5052 53.4145 34.4486C53.2809 34.4216 53.1334 34.4383 53.0094 34.5128C52.8851 34.5861 52.7876 34.7083 52.7228 34.8486C52.5908 35.1311 52.5562 35.4683 52.5696 35.8088C52.5864 36.1508 52.6562 36.502 52.7679 36.8482C52.8839 37.1933 53.0368 37.5175 53.2268 37.8029C53.4187 38.0854 53.6472 38.3366 53.9216 38.4865C54.0574 38.5613 54.2087 38.6024 54.3525 38.5882C54.4968 38.5751 54.6257 38.5016 54.7171 38.4011C54.9013 38.1961 54.9714 37.931 55.0045 37.6987C55.0361 37.463 55.0352 37.2455 55.0172 37.0565C55.0015 36.8673 54.9728 36.7058 54.9462 36.5747C54.9172 36.4438 54.8926 36.3426 54.8725 36.2749C54.8541 36.2066 54.8455 36.1704 54.8476 36.1697C54.8497 36.169 54.8625 36.2039 54.885 36.2711C54.9092 36.338 54.9377 36.4384 54.9707 36.5693C55.0013 36.7003 55.0337 36.8625 55.053 37.0534C55.0745 37.2439 55.0788 37.464 55.0495 37.7049C55.0179 37.9421 54.9514 38.2154 54.7562 38.4373C54.6591 38.5459 54.5172 38.629 54.3583 38.6443C54.1998 38.6608 54.0368 38.6164 53.8938 38.5387C53.6049 38.3824 53.371 38.1252 53.1745 37.838C52.9801 37.5474 52.8246 37.2183 52.707 36.8683C52.5936 36.517 52.5231 36.1602 52.5068 35.8117C52.4941 35.4643 52.5297 35.1193 52.6696 34.8232C52.7384 34.6764 52.8432 34.5444 52.9808 34.4645C53.1179 34.3832 53.2817 34.3664 53.4246 34.3966C53.7138 34.4601 53.93 34.6412 54.0968 34.8137C54.2637 34.9904 54.3913 35.1704 54.4872 35.3366C54.5853 35.5018 54.6556 35.6514 54.7091 35.7753C54.7604 35.9 54.7972 35.9979 54.8174 36.0659C54.8393 36.1334 54.8497 36.1689 54.8477 36.1697L54.8474 36.1697Z" fill="#2C3C43"/>
<path d="M54.0992 37.7145C53.7819 37.7145 53.4019 37.2957 53.2072 36.705C52.9906 36.0476 53.0857 35.4262 53.4195 35.3172C53.4535 35.3062 53.4885 35.3008 53.5244 35.3008C53.8418 35.3008 54.2218 35.7197 54.4165 36.3103C54.6331 36.9678 54.5381 37.5891 54.2042 37.6982C54.1702 37.7093 54.135 37.7146 54.0992 37.7146V37.7145Z" fill="#6CC56C"/>
<path d="M47.3553 24.0328C47.3553 24.0328 47.3302 24.0451 47.2803 24.0661C47.2313 24.0891 47.1539 24.1136 47.0603 24.1621C46.8735 24.2587 46.6063 24.4268 46.3338 24.72C45.7808 25.3015 45.2836 26.3958 45.0724 27.8092C44.9607 28.5149 44.9024 29.298 44.9034 30.1387C44.9063 30.9793 44.9648 31.8772 45.0792 32.8157C45.307 34.6933 45.7703 36.7306 46.4494 38.8056C47.1372 40.8786 47.9764 42.7938 48.9102 44.441C49.3766 45.2648 49.8639 46.023 50.3619 46.7021C50.8615 47.38 51.3743 47.9766 51.8844 48.4794C52.8957 49.4937 53.9475 50.0823 54.739 50.2247C55.1332 50.3005 55.4483 50.2783 55.6563 50.2461C55.7604 50.23 55.8373 50.2042 55.8905 50.1938C55.9433 50.1812 55.9709 50.1764 55.9709 50.1764C55.9709 50.1764 55.8655 50.2131 55.6585 50.2587C55.4502 50.2952 55.1326 50.3218 54.7342 50.2492C54.3368 50.1779 53.8675 50.0022 53.3752 49.7101C52.8813 49.4202 52.3653 49.0153 51.8525 48.5116C51.3383 48.0089 50.8216 47.4119 50.3189 46.7334C49.8176 46.0539 49.3275 45.2949 48.8586 44.47C47.9198 42.8206 47.0773 40.9024 46.3883 38.8257C45.7079 36.7468 45.2453 34.7052 45.0205 32.8229C44.9074 31.8821 44.8506 30.9817 44.8501 30.1387C44.8514 29.2957 44.9125 28.5102 45.0275 27.8021C45.1411 27.0939 45.3157 26.4635 45.5412 25.9387C45.764 25.4131 46.0376 24.9949 46.3155 24.7031C46.5932 24.4099 46.8649 24.2438 47.0546 24.1505C47.2486 24.0653 47.3553 24.0327 47.3553 24.0327V24.0328Z" fill="#2C3C43"/>
<path d="M49.1104 41.4146C49.0633 41.3907 48.7428 41.2213 48.3111 40.8514C48.2014 40.555 48.0951 40.2575 47.9922 39.9586L53.1411 37.7874C53.1519 37.8042 53.163 37.821 53.1741 37.8376C53.3706 38.1249 53.6045 38.3821 53.8934 38.5383C53.9946 38.5933 54.1057 38.6317 54.2182 38.6434L49.1103 41.4147L49.1104 41.4146Z" fill="#6CC56C"/>
<path d="M48.6268 41.6773C48.6266 41.6768 48.6266 41.6767 48.6265 41.6762L48.7083 41.6331L48.6268 41.6773Z" fill="#898C8D"/>
<path d="M48.6265 41.6761C48.5185 41.4025 48.4133 41.1273 48.3113 40.8516C48.7429 41.2215 49.0635 41.3908 49.1105 41.4148L48.7084 41.633L48.6265 41.6762V41.6761Z" fill="#6CC56C"/>
<path d="M54.2182 38.6436C54.1056 38.6319 53.9945 38.5935 53.8935 38.5385C53.6046 38.3822 53.3707 38.125 53.1742 37.8378C53.1631 37.8211 53.152 37.8043 53.1411 37.7875L53.1704 37.7751C53.1704 37.7751 53.6504 38.5883 54.264 38.6189L54.2183 38.6436H54.2182Z" fill="#28343A"/>
<path d="M44.0205 31.9425H42.8704C42.5429 31.3915 42.8704 29.95 42.8704 29.95H44.0205V31.9425Z" fill="#6CC56C"/>
<path d="M44.0661 29.1105C43.9312 29.0273 43.7599 28.9977 43.5786 28.9977C43.3167 28.9977 43.034 29.0594 42.8105 29.1105C42.7962 26.6651 43.5745 23.8696 45.4744 22.2705C46.2231 21.5977 47.096 21.1762 48.0312 21.0078C50.4774 21.2758 53.1745 23.404 55.4746 26.7321C53.9635 25.0058 52.2813 23.3723 50.0992 22.7513C49.6142 22.6134 49.1052 22.5315 48.6007 22.5315C48.0965 22.5315 47.5968 22.6132 47.1297 22.8022C45.9817 23.2666 45.1616 24.3296 44.7187 25.4815C44.2757 26.6335 44.1618 27.8807 44.0662 29.1105H44.0661Z" fill="#6CC56C"/>
<path d="M59.3445 48.8145C59.3466 48.8152 59.3347 48.8445 59.3103 48.8997C59.2841 48.9539 59.2525 49.0374 59.1966 49.1374C59.0933 49.3417 58.9208 49.6275 58.6639 49.9478C58.4077 50.2682 58.0555 50.6169 57.6002 50.9179C57.371 51.0645 57.1205 51.2065 56.8421 51.3121C56.5648 51.4185 56.2657 51.4991 55.9523 51.5395C55.3202 51.6134 54.7126 51.4644 54.2201 51.2373C53.7209 51.015 53.3166 50.7328 52.9896 50.4864C52.6634 50.2374 52.4138 50.0189 52.2441 49.865C52.1587 49.7889 52.0946 49.7272 52.0508 49.6857C52.0073 49.644 51.9851 49.6215 51.9866 49.6197C51.9882 49.6181 52.0132 49.6376 52.0596 49.6761C52.1103 49.7191 52.1771 49.7757 52.2607 49.8464C52.4352 49.9942 52.6889 50.2071 53.017 50.4503C53.3458 50.691 53.7503 50.9672 54.2442 51.1835C54.7322 51.4048 55.3274 51.548 55.9445 51.4762C56.252 51.4364 56.5461 51.3578 56.8191 51.2538C57.0933 51.1508 57.3408 51.012 57.5678 50.8688C58.0187 50.5744 58.3704 50.2332 58.6288 49.9193C58.888 49.6054 59.0652 49.3253 59.1746 49.1257C59.2337 49.0281 59.2689 48.9465 59.2987 48.8942C59.3269 48.8411 59.3426 48.8136 59.3447 48.8145L59.3445 48.8145Z" fill="#FEFEFE"/>
<path d="M54.6542 50.2365C52.4081 49.7957 49.7057 46.6663 47.6684 42.1813L47.6908 42.1696C48.0586 42.9815 48.4495 43.7513 48.8586 44.4703C49.3275 45.2951 49.8176 46.0541 50.319 46.7337C50.8217 47.4121 51.3384 48.0092 51.8525 48.5118C52.3654 49.0156 52.8813 49.4205 53.3753 49.7104C53.8304 49.9804 54.2659 50.1509 54.643 50.2315C54.6469 50.2333 54.6506 50.2347 54.6542 50.2365ZM45.5756 36.0601C44.1963 30.2657 44.7172 25.3376 46.9542 24.1768C46.9466 24.1898 46.9391 24.2028 46.9316 24.2159C46.756 24.3154 46.5376 24.4686 46.3154 24.7033C46.0376 24.9951 45.7639 25.4134 45.5411 25.9389C45.3157 26.4637 45.1409 27.0941 45.0274 27.8023C44.9124 28.5105 44.8514 29.2959 44.8501 30.139C44.8506 30.982 44.9073 31.8823 45.0204 32.8231C45.1442 33.8586 45.3398 34.9423 45.6041 36.054L45.5757 36.0601H45.5756Z" fill="#6CC56C"/>
<path d="M55.2653 50.2761C55.1118 50.2761 54.935 50.2626 54.7388 50.2249C53.9473 50.0825 52.8955 49.4939 51.8842 48.4796C51.3742 47.9768 50.8613 47.3801 50.3617 46.7023C49.8637 46.0232 49.3765 45.265 48.91 44.4412C48.5044 43.7258 48.1166 42.9597 47.7514 42.1522L48.6281 41.6806C48.9695 42.546 49.34 43.4 49.7389 44.2408C50.4135 45.6621 51.1847 47.0673 52.3007 48.1796C53.3452 49.2204 54.7346 49.9868 56.2028 50.057C56.1082 50.1033 56.0106 50.1438 55.9098 50.1767C55.8063 50.2105 55.7012 50.2365 55.5942 50.2551C55.5015 50.2671 55.3911 50.2761 55.2652 50.2761H55.2653ZM45.6657 36.0406C45.4011 34.9309 45.2043 33.8492 45.0791 32.8159C44.9647 31.8774 44.9062 30.9795 44.9033 30.1389C44.9024 29.2983 44.9606 28.5151 45.0724 27.8094C45.2835 26.3959 45.7807 25.3016 46.3337 24.7203C46.5422 24.4959 46.7473 24.345 46.916 24.2432C46.4215 25.1101 46.1162 26.0904 45.9683 27.0802C45.7502 28.5394 45.8521 30.0274 46.0326 31.4917C46.2111 32.939 46.4661 34.3763 46.7959 35.797L45.6659 36.0406H45.6657Z" fill="#949899"/>
<path d="M54.8404 50.2668C54.7787 50.2587 54.7167 50.2486 54.6543 50.2364C54.6505 50.2347 54.6469 50.2332 54.6431 50.2314C54.6739 50.2381 54.7043 50.2441 54.7342 50.2494C54.7703 50.256 54.8057 50.2619 54.8404 50.2668Z" fill="#6CC56C" fill-opacity="0.5"/>
<path d="M47.6685 42.1813C47.1902 41.1286 46.7488 40.0014 46.3582 38.8166C46.0751 37.9571 45.8316 37.1066 45.6272 36.2727L45.7949 36.8158C45.9693 37.4791 46.1673 38.1505 46.3884 38.8259C46.7771 39.9974 47.2146 41.1186 47.6909 42.1696L47.6685 42.1812V42.1813ZM47.0096 40.3733C46.8286 39.9019 46.6553 39.4201 46.4905 38.9293L47.0341 40.3628L47.0096 40.3733ZM47.5911 40.1279C47.4334 39.9435 47.2729 39.7366 47.1147 39.5056C46.5926 38.7433 46.7669 37.6725 47.0537 36.846C47.326 37.8953 47.6391 38.9338 47.9923 39.9588L47.5911 40.128V40.1279Z" fill="#6CC56C"/>
<path d="M47.7516 42.1522C47.7515 42.1522 47.7516 42.1522 47.7515 42.1522L48.6268 41.6772C48.6272 41.6782 48.6277 41.6795 48.6282 41.6806L47.7516 42.1522H47.7516Z" fill="#787D7E"/>
<path d="M45.6658 36.0405L46.7958 35.7969L45.6658 36.0405Z" fill="#787D7E"/>
<path d="M47.034 40.3627L46.4904 38.9292C46.4766 38.8881 46.463 38.8469 46.4494 38.8057C46.1438 37.8726 45.8822 36.9471 45.6658 36.0405L46.7958 35.7969C46.8771 36.1475 46.9631 36.4975 47.0537 36.8459C46.7668 37.6723 46.5925 38.7432 47.1146 39.5054C47.2729 39.7365 47.4333 39.9434 47.5911 40.1277L47.034 40.3627ZM45.7948 36.8156L45.6271 36.2726C45.6097 36.2015 45.5926 36.1305 45.5757 36.0599L45.6041 36.0538C45.6641 36.3064 45.7277 36.5604 45.7948 36.8157V36.8156Z" fill="#6CC56C" fill-opacity="0.5"/>
<path d="M55.1858 50.2897C55.0722 50.2897 54.9569 50.282 54.8404 50.2669C54.8056 50.2618 54.7702 50.2561 54.7342 50.2494C54.7042 50.2442 54.6739 50.2381 54.6431 50.2315C54.2659 50.1509 53.8304 49.9804 53.3753 49.7103C52.8814 49.4204 52.3654 49.0155 51.8525 48.5118C51.3384 48.0091 50.8217 47.4121 50.319 46.7336C49.8177 46.0541 49.3276 45.2951 48.8587 44.4702C48.4495 43.7513 48.0586 42.9815 47.6908 42.1696C47.2146 41.1187 46.7771 39.9975 46.3884 38.8259C46.1673 38.1505 45.9693 37.4792 45.7949 36.8158C45.7277 36.5606 45.6641 36.3065 45.6042 36.0539C45.3399 34.9423 45.1443 33.8585 45.0205 32.8231C44.9074 31.8823 44.8506 30.9819 44.8501 30.1389C44.8514 29.2959 44.9125 28.5104 45.0275 27.8023C45.1411 27.0941 45.3157 26.4636 45.5412 25.9389C45.7639 25.4133 46.0376 24.995 46.3155 24.7033C46.5377 24.4686 46.756 24.3154 46.9316 24.2158C46.9263 24.2248 46.9211 24.234 46.916 24.2431C46.7474 24.345 46.5422 24.4958 46.3337 24.7202C45.7807 25.3016 45.2835 26.3959 45.0724 27.8093C44.9607 28.515 44.9024 29.2982 44.9033 30.1388C44.9062 30.9794 44.9647 31.8773 45.0791 32.8158C45.2043 33.8491 45.4012 34.9308 45.6657 36.0405C45.8821 36.9472 46.1438 37.8726 46.4493 38.8057C46.4629 38.847 46.4766 38.8881 46.4904 38.9292C46.6551 39.4199 46.8284 39.9018 47.0095 40.3731L46.9785 40.3861L47.719 42.1695L47.7514 42.1521C47.7515 42.1521 47.7514 42.1521 47.7515 42.1521C48.1167 42.9596 48.5046 43.7258 48.9101 44.4411C49.3765 45.2649 49.8638 46.0231 50.3618 46.7022C50.8614 47.3801 51.3742 47.9767 51.8843 48.4795C52.8956 49.4938 53.9474 50.0824 54.7389 50.2248C54.9351 50.2625 55.1119 50.276 55.2654 50.276C55.3912 50.276 55.5016 50.2669 55.5944 50.255C55.4606 50.2782 55.3244 50.2896 55.1859 50.2896L55.1858 50.2897Z" fill="#273035"/>
<path d="M47.4647 41.4986C47.3082 41.1309 47.1562 40.7554 47.0095 40.3732L47.034 40.3628L47.4647 41.4986ZM48.3112 40.8516C48.0926 40.6643 47.8454 40.4255 47.5911 40.1279L47.9922 39.9587C48.0952 40.2576 48.2014 40.5551 48.3112 40.8515V40.8516Z" fill="#6CC56C" fill-opacity="0.5"/>
<path d="M47.7514 42.1522C47.7497 42.1483 47.7479 42.1442 47.7461 42.1404L48.6264 41.6763C48.6265 41.6768 48.6265 41.6769 48.6268 41.6773L47.7514 42.1523V42.1522Z" fill="#636667"/>
<path d="M47.7461 42.1402C47.6507 41.9291 47.5568 41.7152 47.4646 41.4985L47.0339 40.3626L47.591 40.1277C47.8453 40.4252 48.0925 40.664 48.3111 40.8514C48.4131 41.1272 48.5183 41.4023 48.6263 41.6759L47.746 42.1401L47.7461 42.1402Z" fill="#6CC56C"/>
<path d="M47.7191 42.1697L46.9785 40.3863L47.0095 40.3733C47.1563 40.7555 47.3082 41.131 47.4647 41.4987C47.5569 41.7154 47.6507 41.9293 47.7462 42.1405C47.748 42.1443 47.7498 42.1484 47.7515 42.1523L47.7192 42.1697H47.7191Z" fill="#242B2F"/>
<path d="M59.7693 35.0144L67.3538 33.655L66.1871 32.0013L70.3437 30.2573L63.7178 31.0538L64.919 32.8664L59.7693 35.0144Z" fill="#6CC56C"/>
<path d="M59.0696 30.15L63.8843 26.3175L62.0131 25.5142L63.6862 22.4851L59.7693 25.7612L61.3926 26.5246L59.0696 30.15Z" fill="#6CC56C"/>
<path d="M61.5886 39.0908L66.4222 42.9156L66.549 41.4787L69.7618 42.7915L65.6004 39.4559L65.4702 40.9791L61.5886 39.0908Z" fill="#6CC56C"/>
</svg>
